<svg data-v-c4862b54="" xmlns="http://www.w3.org/2000/svg" width="148.116" height="76" viewBox="0 0 148.116 76"><g data-v-c4862b54="" id="Grupo_2932" data-name="Grupo 2932" transform="translate(-1520.031 1970.5)"><g data-v-c4862b54="" id="Grupo_2931" data-name="Grupo 2931" transform="translate(31.265 -15.067)"><path data-v-c4862b54="" id="XMLID_1_" d="M32.284,6.64A2.8,2.8,0,0,0,31,4.306C25.677.986,14.7.131,12.726.033A.91.91,0,0,0,12.43,0a1.613,1.613,0,0,0-.362.033,2.187,2.187,0,0,0-.723.131A3.331,3.331,0,0,0,9.34,1.709C-.258,17.685-.028,53.12,0,57.131a3.522,3.522,0,0,0,2.005,3.09c.986.46,6.147,2.86,10.42,2.86,4.142,0,9.3-2.367,10.289-2.86a3.432,3.432,0,0,0,1.972-3.09c0-.427.066-3.386-.066-7.823l1.446-5.917C29.819,28.171,32.284,18.112,32.284,6.64ZM19.2,55.783a17.456,17.456,0,0,1-6.8,1.808v-.131l.986-51.575C21.5,20.38,19.267,51.477,19.2,55.783Z" transform="translate(1488.769 -1948.405)" fill="#baa147"></path><path data-v-c4862b54="" id="XMLID_1_-_Contorno" data-name="XMLID_1 - Contorno" d="M3.77,53.5v-.131L4.756,1.79c8.119,14.5,5.884,45.593,5.818,49.9A17.456,17.456,0,0,1,3.77,53.5" transform="translate(1497.414 -1944.311)" fill="#e0d3ad"></path></g><g data-v-c4862b54="" id="Grupo_2930" data-name="Grupo 2930" transform="translate(-160 -12.598)"><path data-v-c4862b54="" id="Trazado_59485" data-name="Trazado 59485" d="M7.5-.835a4.92,4.92,0,0,0,3.992-1.89,7.5,7.5,0,0,0,1.545-4.907,7.533,7.533,0,0,0-1.545-4.915,4.913,4.913,0,0,0-3.992-1.9,4.783,4.783,0,0,0-3.933,1.89,7.7,7.7,0,0,0-1.5,4.937A7.607,7.607,0,0,0,3.567-2.7,4.8,4.8,0,0,0,7.5-.835Zm.308,6.328a7.1,7.1,0,0,1-4.05-1.106,4.285,4.285,0,0,1-1.97-2.776H2.959a3.727,3.727,0,0,0,1.7,2.08A5.993,5.993,0,0,0,7.866,4.5,5.412,5.412,0,0,0,11.631,3.23,4.306,4.306,0,0,0,13.037-.132V-4.043h-.044a5.819,5.819,0,0,1-2.058,3.032A5.633,5.633,0,0,1,7.354.19,5.732,5.732,0,0,1,2.7-1.97,8.642,8.642,0,0,1,.923-7.632,8.642,8.642,0,0,1,2.7-13.308a5.753,5.753,0,0,1,4.666-2.161,5.619,5.619,0,0,1,3.589,1.216,6.127,6.127,0,0,1,2.109,3.105H13.1v-4.087h1.069V-.176a5.27,5.27,0,0,1-1.721,4.124A6.681,6.681,0,0,1,7.808,5.493ZM25.1-14.458a4.977,4.977,0,0,0-3.867,1.67,6.78,6.78,0,0,0-1.626,4.409H30.478a6.472,6.472,0,0,0-1.494-4.395A4.918,4.918,0,0,0,25.1-14.458Zm5.215,10.2H31.46a5.208,5.208,0,0,1-2.065,3.245A6.738,6.738,0,0,1,25.234.234a6.268,6.268,0,0,1-4.966-2.087A8.422,8.422,0,0,1,18.437-7.6a8.527,8.527,0,0,1,1.831-5.706,6.04,6.04,0,0,1,4.849-2.161,6.009,6.009,0,0,1,4.739,2.036A7.812,7.812,0,0,1,31.65-8.071v.645H19.594v.059a7.114,7.114,0,0,0,1.531,4.834A5.19,5.19,0,0,0,25.249-.776a5.625,5.625,0,0,0,3.376-.967A4.156,4.156,0,0,0,30.317-4.263ZM35.893,0V-15.234h1.069v3.311h.029a4.928,4.928,0,0,1,1.941-2.571,5.727,5.727,0,0,1,3.333-.974,5.479,5.479,0,0,1,4.043,1.516,5.5,5.5,0,0,1,1.523,4.08V0H46.689V-9.727a4.641,4.641,0,0,0-1.274-3.457A4.643,4.643,0,0,0,42-14.443a4.665,4.665,0,0,0-3.589,1.487A5.455,5.455,0,0,0,37.035-9.1V0ZM58.666-14.458a4.977,4.977,0,0,0-3.867,1.67,6.78,6.78,0,0,0-1.626,4.409H64.042a6.472,6.472,0,0,0-1.494-4.395A4.918,4.918,0,0,0,58.666-14.458Zm5.215,10.2h1.143a5.208,5.208,0,0,1-2.065,3.245A6.738,6.738,0,0,1,58.8.234a6.268,6.268,0,0,1-4.966-2.087A8.422,8.422,0,0,1,52-7.6a8.527,8.527,0,0,1,1.831-5.706,6.04,6.04,0,0,1,4.849-2.161,6.009,6.009,0,0,1,4.739,2.036,7.812,7.812,0,0,1,1.794,5.361v.645H53.158v.059a7.114,7.114,0,0,0,1.531,4.834A5.19,5.19,0,0,0,58.812-.776a5.625,5.625,0,0,0,3.376-.967A4.156,4.156,0,0,0,63.881-4.263ZM69.456,0V-15.234h1.069v3h.029a4.66,4.66,0,0,1,1.523-2.4,4,4,0,0,1,2.563-.835,3.628,3.628,0,0,1,1.421.249v1.143a3.538,3.538,0,0,0-1.582-.308,3.392,3.392,0,0,0-2.827,1.362A5.6,5.6,0,0,0,70.6-9.492V0ZM83.836-.762A5.55,5.55,0,0,0,87.681-2.19a4.489,4.489,0,0,0,1.589-3.464V-7.91l-5.083.366A5.989,5.989,0,0,0,80.914-6.5a2.879,2.879,0,0,0-1.135,2.4,2.969,2.969,0,0,0,1.143,2.4A4.445,4.445,0,0,0,83.836-.762Zm-.161,1A5.377,5.377,0,0,1,80.042-.974,3.932,3.932,0,0,1,78.636-4.1a3.731,3.731,0,0,1,1.37-3.062,7.168,7.168,0,0,1,4.021-1.318l5.244-.366V-10.21a4.181,4.181,0,0,0-1.135-3.105,4.283,4.283,0,0,0-3.157-1.128,5.032,5.032,0,0,0-3.193.952,4.136,4.136,0,0,0-1.509,2.681h-1.1a4.811,4.811,0,0,1,1.78-3.4,6.222,6.222,0,0,1,4.036-1.26,5.5,5.5,0,0,1,3.962,1.392A4.978,4.978,0,0,1,90.413-10.3V0h-1.1V-3.267h-.029A5.055,5.055,0,0,1,87.139-.74,6.409,6.409,0,0,1,83.675.234ZM1.655,26V10.766h2.4v2.49h.059A3.731,3.731,0,0,1,7.808,10.5a8.324,8.324,0,0,1,1.025.1V13.08a4.47,4.47,0,0,0-1.362-.146,3.054,3.054,0,0,0-2.373.981A3.7,3.7,0,0,0,4.2,16.508V26ZM16.274,12.714a3.883,3.883,0,0,0-2.937,1.223,4.82,4.82,0,0,0-1.282,3.142h8.276a4.646,4.646,0,0,0-1.157-3.149A3.75,3.75,0,0,0,16.274,12.714Zm4,8.921h2.5a5.061,5.061,0,0,1-2.1,3.325,6.939,6.939,0,0,1-4.241,1.3,6.527,6.527,0,0,1-5.142-2.109,8.288,8.288,0,0,1-1.875-5.713A8.505,8.505,0,0,1,11.3,12.685,6.294,6.294,0,0,1,16.318,10.5a6.1,6.1,0,0,1,4.863,2.065A8.169,8.169,0,0,1,22.969,18.1v.967H12.041v.146a5.019,5.019,0,0,0,1.2,3.516,4.182,4.182,0,0,0,3.252,1.318,4.381,4.381,0,0,0,2.446-.659A3.09,3.09,0,0,0,20.273,21.635Zm17.915-5.874H35.7a4.064,4.064,0,0,0-7.1-1.487,6.423,6.423,0,0,0-1.216,4.109A6.378,6.378,0,0,0,28.6,22.514a3.953,3.953,0,0,0,3.23,1.509,4.057,4.057,0,0,0,2.542-.769,3.721,3.721,0,0,0,1.34-2.161h2.5a5.558,5.558,0,0,1-2.058,3.728,6.638,6.638,0,0,1-4.343,1.443A6.565,6.565,0,0,1,26.7,24.147a8.261,8.261,0,0,1-1.919-5.764A8.284,8.284,0,0,1,26.7,12.648,6.487,6.487,0,0,1,31.787,10.5a6.366,6.366,0,0,1,4.431,1.538A5.817,5.817,0,0,1,38.188,15.761Zm8.481-3.047a3.883,3.883,0,0,0-2.937,1.223,4.82,4.82,0,0,0-1.282,3.142h8.276A4.646,4.646,0,0,0,49.57,13.93,3.75,3.75,0,0,0,46.67,12.714Zm4,8.921h2.5a5.061,5.061,0,0,1-2.1,3.325,6.939,6.939,0,0,1-4.241,1.3,6.527,6.527,0,0,1-5.142-2.109,8.288,8.288,0,0,1-1.875-5.713A8.505,8.505,0,0,1,41.7,12.685,6.294,6.294,0,0,1,46.714,10.5a6.1,6.1,0,0,1,4.863,2.065A8.169,8.169,0,0,1,53.364,18.1v.967H42.437v.146a5.019,5.019,0,0,0,1.2,3.516,4.182,4.182,0,0,0,3.252,1.318,4.381,4.381,0,0,0,2.446-.659A3.09,3.09,0,0,0,50.669,21.635ZM56.748,7.089H59.3v3.677h2.959V12.86H59.3v9.053a2.2,2.2,0,0,0,.454,1.531,1.871,1.871,0,0,0,1.436.491,6.524,6.524,0,0,0,1.055-.073V26a7.819,7.819,0,0,1-1.611.117,4,4,0,0,1-2.988-.937,4.47,4.47,0,0,1-.894-3.135V12.86H54.478V10.766h2.271ZM69.7,24.1a4.311,4.311,0,0,0,3.025-1.121,3.6,3.6,0,0,0,1.223-2.761V18.969l-4.072.249a4.339,4.339,0,0,0-2.38.747,2.065,2.065,0,0,0-.842,1.729,2.111,2.111,0,0,0,.835,1.743A3.468,3.468,0,0,0,69.7,24.1Zm-.571,2.168A5.275,5.275,0,0,1,65.457,25a4.242,4.242,0,0,1-1.4-3.311A3.832,3.832,0,0,1,65.5,18.559a6.952,6.952,0,0,1,4.08-1.318l4.365-.249V15.717a2.787,2.787,0,0,0-.879-2.183,3.55,3.55,0,0,0-2.461-.791,4.019,4.019,0,0,0-2.358.637,2.824,2.824,0,0,0-1.157,1.78H64.629a4.5,4.5,0,0,1,1.765-3.347,6.614,6.614,0,0,1,4.27-1.311,6.327,6.327,0,0,1,4.255,1.348,4.52,4.52,0,0,1,1.575,3.618V26H74.077V23.378h-.059A5.27,5.27,0,0,1,72,25.473,5.529,5.529,0,0,1,69.126,26.264ZM79.468,14.97a3.915,3.915,0,0,1,1.589-3.215A6.417,6.417,0,0,1,85.151,10.5a6.066,6.066,0,0,1,3.926,1.26,4.187,4.187,0,0,1,1.655,3.193H88.3a2.418,2.418,0,0,0-.989-1.743,4.337,4.337,0,0,0-4.49-.007,1.933,1.933,0,0,0-.85,1.633q0,1.553,2.534,2.2l2.358.571a7.193,7.193,0,0,1,3.245,1.516,3.5,3.5,0,0,1,.945,2.615A3.9,3.9,0,0,1,89.355,25a7.11,7.11,0,0,1-4.365,1.267,6.57,6.57,0,0,1-4.109-1.238,4.529,4.529,0,0,1-1.824-3.274h2.549q.425,2.432,3.545,2.432a4.3,4.3,0,0,0,2.439-.608,1.892,1.892,0,0,0,.9-1.648,1.67,1.67,0,0,0-.535-1.3,4.445,4.445,0,0,0-1.809-.82l-2.681-.688Q79.468,18.09,79.468,14.97Z" transform="translate(1737.093 -1937.405)" fill="#baa147"></path><path data-v-c4862b54="" id="Trazado_59486" data-name="Trazado 59486" d="M3.633,52.117a.975.975,0,0,1-.981-.981.93.93,0,0,1,.286-.681.947.947,0,0,1,.7-.286.975.975,0,0,1,.967.967.947.947,0,0,1-.286.7A.93.93,0,0,1,3.633,52.117ZM19.922,41.365H18.794a4.612,4.612,0,0,0-1.7-2.739,5.092,5.092,0,0,0-3.267-1.069A4.985,4.985,0,0,0,9.756,39.4a7.636,7.636,0,0,0-1.509,4.98,7.63,7.63,0,0,0,1.509,4.988,4.993,4.993,0,0,0,4.072,1.838A5.257,5.257,0,0,0,17.087,50.2a4.371,4.371,0,0,0,1.692-2.666h1.128a5.218,5.218,0,0,1-2.007,3.4,6.416,6.416,0,0,1-4.072,1.3,6.143,6.143,0,0,1-4.907-2.109A8.507,8.507,0,0,1,7.1,44.383a8.5,8.5,0,0,1,1.824-5.728,6.113,6.113,0,0,1,4.885-2.124A6.234,6.234,0,0,1,17.9,37.9,5.536,5.536,0,0,1,19.922,41.365ZM33.376,50.11a6.244,6.244,0,0,1-4.929,2.124,6.222,6.222,0,0,1-4.922-2.124,8.386,8.386,0,0,1-1.86-5.728,8.386,8.386,0,0,1,1.86-5.728,6.222,6.222,0,0,1,4.922-2.124,6.244,6.244,0,0,1,4.929,2.124,8.365,8.365,0,0,1,1.868,5.728A8.365,8.365,0,0,1,33.376,50.11Zm-9.031-.74a5.077,5.077,0,0,0,4.1,1.838,5.09,5.09,0,0,0,4.109-1.846,7.512,7.512,0,0,0,1.545-4.98A7.506,7.506,0,0,0,32.556,39.4a5.1,5.1,0,0,0-4.109-1.838,5.077,5.077,0,0,0-4.1,1.838,7.531,7.531,0,0,0-1.538,4.988A7.531,7.531,0,0,0,24.346,49.371ZM37.852,52V36.766h1.069v3.311h.029a5,5,0,0,1,1.655-2.563,4.876,4.876,0,0,1,5.925.044,4.581,4.581,0,0,1,1.589,2.593h.044A4.926,4.926,0,0,1,53,36.531a4.643,4.643,0,0,1,3.545,1.414,5.273,5.273,0,0,1,1.333,3.772V52H56.733V41.98a4.657,4.657,0,0,0-1.069-3.237,3.745,3.745,0,0,0-2.93-1.187,3.915,3.915,0,0,0-3.113,1.384,5.289,5.289,0,0,0-1.194,3.582V52H47.3V41.937a4.5,4.5,0,0,0-1.113-3.171,3.727,3.727,0,0,0-2.871-1.208,3.846,3.846,0,0,0-3.12,1.465,5.931,5.931,0,0,0-1.2,3.882V52Z" transform="translate(1737.093 -1937.405)" fill="#fff"></path></g><line data-v-c4862b54="" id="Línea_241" data-name="Línea 241" y2="76" transform="translate(1565.5 -1970.5)" fill="none" stroke="#fff" stroke-width="1"></line></g></svg>