<svg xmlns="http://www.w3.org/2000/svg" viewBox="0 0 58 80.587">
  <g transform="translate(7474.23 1198.849)">
    <path d="M10.359-2.609a1.683,1.683,0,0,0-.377.034,2.281,2.281,0,0,0-.754.137A3.475,3.475,0,0,0,7.135-.826C1.918,7.857-.515,22.05-1.664,34.455c-1.019,11-.956,20.53-.939,22.534A3.674,3.674,0,0,0-.512,60.212C.517,60.692,5.9,63.2,10.359,63.2c4.321,0,9.7-2.469,10.733-2.983a3.58,3.58,0,0,0,2.057-3.223c0-.446.069-3.532-.069-8.161l1.509-6.172C28.5,26.779,31.07,16.285,31.07,4.318a2.924,2.924,0,0,0-1.337-2.435C24.178-1.58,12.725-2.472,10.667-2.575a.949.949,0,0,0-.309-.034m-.034,60.078v-.137l1.029-53.8c8.47,15.122,6.138,47.562,6.07,52.054a18.21,18.21,0,0,1-7.1,1.886M10.359-10a8.354,8.354,0,0,1,.915.056c2.354.133,15.148,1.053,22.369,5.555a10.411,10.411,0,0,1,4.818,8.707c0,12.912-2.808,24.318-6.7,40.1l-1.27,5.2c.089,3.6.059,6.15.047,7.11a11.029,11.029,0,0,1-6.218,10.13c-1.185.593-7.769,3.728-13.966,3.728-5.056,0-10.4-2-14-3.677a11.094,11.094,0,0,1-6.355-9.736c-.038-4.516.04-13.379.968-23.4C-7.421,16.471-4.116,3.55.8-4.632A10.6,10.6,0,0,1,7.127-9.524a7.845,7.845,0,0,1,2.4-.431C9.83-9.983,10.123-10,10.359-10Z" transform="translate(-7464.231 -1188.849)" fill="#baa147"/>
  </g>
</svg>
