<svg xmlns="http://www.w3.org/2000/svg" width="60" height="30" viewBox="0 0 145.296 56">
  <g id="Grupo_132" data-name="Grupo 132" transform="translate(-161.871 452)">
    <g id="Grupo_130" data-name="Grupo 130" transform="translate(161.871 -452)">
      <g id="Grupo_128" data-name="Grupo 128">
        <path id="Trazado_348" data-name="Trazado 348" d="M184.517,548.094c0-6.563-1.56-12.065-4.759-16.754,2.15-1.049,3.166-3.223,3.166-6.683v-1.233H179.6v.835c0,2.684-1.213,3.757-4.254,3.757h-5.526c-2.862,0-4.433,1.57-4.751,4.671h-.536c-.318-3.1-1.889-4.671-4.751-4.671h-5.467c-3.041,0-4.254-1.054-4.254-3.757v-.835h-3.32v1.233c0,3.6,1.086,5.8,3.4,6.8a28.838,28.838,0,0,0-4.68,16.636c0,7.124,1.815,12.955,5.552,17.857a26.261,26.261,0,0,0-4.271,2.7v3.777c3.658-2.863,11.291-5.109,18.11-5.109,6.8,0,14.432,2.246,18.069,5.109V568.65a26.136,26.136,0,0,0-4.038-2.592C182.677,561.134,184.517,555.27,184.517,548.094Zm-30.895-16,.159,0h4.652c3.1,0,4.154,1.173,4.175,4.492H167c.02-3.32,1.094-4.492,4.175-4.492h4.671c.173,0,.341,0,.507-.01a36.283,36.283,0,0,1,3.77,16.032q0,.317-.007.637a8.4,8.4,0,0,0-4.271-.943h-4.671c-3.081,0-4.155-1.173-4.175-4.492h-4.393c-.02,3.32-1.073,4.492-4.175,4.492h-4.652a8.765,8.765,0,0,0-3.92.765c0-.153,0-.306,0-.459A36.29,36.29,0,0,1,153.622,532.089Zm11.212,30.836a31.868,31.868,0,0,0-10.885,1.758,32.515,32.515,0,0,1-3.614-10.857c.5-1.372,1.749-1.944,3.982-1.944h5.467c2.862,0,4.433-1.57,4.751-4.672h.536c.318,3.1,1.889,4.672,4.751,4.672h5.526c2.594,0,3.855.785,4.17,2.68a31.671,31.671,0,0,1-3.542,10.209A31.714,31.714,0,0,0,164.834,562.925Z" transform="translate(-145.463 -523.424)" fill="#27debf"/>
        <ellipse id="Elipse_3" data-name="Elipse 3" cx="2.922" cy="2.862" rx="2.922" ry="2.862" transform="translate(9.869 12.204)" fill="#27debf"/>
        <ellipse id="Elipse_4" data-name="Elipse 4" cx="2.922" cy="2.862" rx="2.922" ry="2.862" transform="translate(23.179 12.204)" fill="#27debf"/>
      </g>
    </g>
    <path id="Trazado_349" data-name="Trazado 349" d="M3.961,7.478H7.926V-11.893c0-6.144,3.935-10.2,9.685-10.2,5.66,0,8.5,3.178,8.5,9.383V7.478h3.965V-13.709c0-7.6-4.147-11.955-11.411-11.955-5.206,0-8.808,2.391-10.533,6.417H7.744v-5.872H3.961Zm35.5-26.584v5.415H36.077v3.362h3.382V1.888c0,4.085,1.857,5.727,6.529,5.727A13.576,13.576,0,0,0,48.275,7.4V4.057a13.844,13.844,0,0,1-1.6.1c-2.092,0-3.01-1-3.01-3.284v-11.2h4.613v-3.362H43.662v-5.415ZM66.942,1.79c-.782,1.72-2.522,2.658-5.063,2.658-3.362,0-5.532-2.424-5.669-6.275v-.2H71.243V-3.468c0-6.646-3.577-10.692-9.5-10.692-6,0-9.813,4.32-9.813,11.064,0,6.783,3.734,10.986,9.832,10.986,4.867,0,8.308-2.346,9.226-6.1ZM61.723-10.74c3.108,0,5.141,2.248,5.239,5.688H56.211C56.445-8.473,58.615-10.74,61.723-10.74ZM94.309-6.928c-.547-4.124-3.773-7.233-9.109-7.233-6.2,0-9.969,4.2-9.969,10.946,0,6.881,3.792,11.1,9.989,11.1,5.258,0,8.542-2.952,9.089-7.135H90.223C89.676,3.06,87.858,4.311,85.2,4.311c-3.5,0-5.669-2.834-5.669-7.526,0-4.594,2.15-7.369,5.669-7.369a4.777,4.777,0,0,1,5.024,3.655Z" transform="translate(212.859 -418.807)" fill="#fff"/>
  </g>
</svg>
