<svg data-v-8b29a1bf="" class="my-10" xmlns="http://www.w3.org/2000/svg" width="171.292" height="39.596" viewBox="0 0 171.292 39.596"><g id="gestiongr" transform="translate(4320.138 225.468)"><path id="Trazado_2647" data-name="Trazado 2647" d="M16.837,35.217c0,3.117-1.187,4.957-4.6,4.957-3.3,0-4.6-1.633-4.6-5.106H6.447v.3c0,3.265,1.484,5.937,5.789,5.937s5.789-2.672,5.789-5.937V23.788l.148-4.453h-.891l-.3,2.226a5.16,5.16,0,0,0-4.75-2.523c-4.3,0-6.085,3.414-6.085,7.273v.594c0,3.859,1.781,7.273,6.085,7.273a5.265,5.265,0,0,0,4.6-2.226Zm0-12.319v7.421a5.133,5.133,0,0,1-4.453,2.731c-3.354,0-4.987-2.494-4.987-6.145v-.594c0-3.651,1.633-6.145,4.987-6.145A5.133,5.133,0,0,1,16.837,22.9ZM34.5,27.766v-.861c0-4.3-1.9-7.867-6.382-7.867s-6.382,3.562-6.382,7.867V27.5c0,4.3,1.93,7.867,6.531,7.867,4.393,0,6.234-2.968,6.234-5.225v-.119H33.312c0,1.93-1.4,4.215-5.046,4.215s-5.225-2.612-5.284-6.471Zm-6.382-7.6c3.443,0,5.046,2.612,5.136,6.471H22.981C23.041,22.779,24.644,20.167,28.117,20.167ZM43.85,34.237c-3.651,0-4.6-1.959-4.6-3.918H38.061v.119c0,2.167,1.366,4.928,5.789,4.928,3.681,0,5.789-1.87,5.789-4.393v-.119c0-2.731-1.4-3.978-5.343-4.275-3.948-.327-4.809-1.366-4.809-3.236,0-2.048,1.633-3.176,4.364-3.176,3.443,0,4.453,1.633,4.453,4.215H49.49v-.119c0-2.968-1.455-5.225-5.64-5.225-3.681,0-5.61,1.84-5.61,4.245v.148c0,2.137,1.009,3.74,5.165,4.126,3.473.3,4.987.831,4.987,3.354C48.392,32.961,46.759,34.237,43.85,34.237Zm12.111-14.9V14.883H54.774v4.453H52.251v1.128h2.523v10.6c0,3.117,1.781,4.3,4.156,4.3a5.774,5.774,0,0,0,2.078-.3v-1.1a5.747,5.747,0,0,1-1.781.267c-2.167,0-3.265-.653-3.265-3.325V20.463H61.3V19.335Zm9.2,15.733h1.187V19.335H65.164ZM66.648,13.25H64.867v1.781h1.781ZM76.741,35.365c4.482,0,6.382-3.562,6.382-7.867v-.594c0-4.3-1.9-7.867-6.382-7.867s-6.382,3.562-6.382,7.867V27.5C70.359,31.8,72.258,35.365,76.741,35.365Zm0-1.128c-3.533,0-5.136-2.731-5.136-6.738v-.594c0-4.007,1.6-6.738,5.136-6.738s5.136,2.731,5.136,6.738V27.5C81.876,31.506,80.273,34.237,76.741,34.237Zm21.225.831V23.937c0-2.968-1.781-4.9-4.75-4.9a5.992,5.992,0,0,0-5.373,2.612l-.267-2.315h-.891l.148,4.453v11.28h1.187V22.9a5.38,5.38,0,0,1,4.9-2.731c2.226,0,3.859,1.1,3.859,3.918V35.068Zm13.477-.089c0,2.612-1.039,3.889-3.622,3.889-2.612,0-3.533-1.336-3.533-3.8h-2.85v.475c0,3.206,1.633,5.818,6.412,5.818,4.631,0,6.56-2.494,6.56-6.293V23.788l.208-4.453h-2.583l-.3,2.019a5.109,5.109,0,0,0-4.631-2.375c-4.245,0-5.967,3.3-5.967,7.332v.712c0,4.186,1.722,7.332,5.967,7.332a5.173,5.173,0,0,0,4.334-1.959Zm0-11.28v5.937a4.164,4.164,0,0,1-3.562,2.108c-2.494,0-3.74-1.781-3.74-4.72v-.712c0-2.82,1.247-4.72,3.74-4.72A4.226,4.226,0,0,1,111.443,23.7Zm13.6-4.72a5.061,5.061,0,0,0-4.334,2.375l-.3-2.019h-2.553l.208,4.453v11.28h2.968V23.877a4.4,4.4,0,0,1,3.918-2.019h.534v-2.85C125.424,19.009,125.216,18.979,125.038,18.979Z" transform="translate(-4274.329 -233.819)" fill="#000"></path><g id="Grupo_64" data-name="Grupo 64" transform="translate(-4320.138 -225.467)"><path id="Sustracción_1" data-name="Sustracción 1" d="M32.859,39.6H9a9.01,9.01,0,0,1-9-9V9A9.01,9.01,0,0,1,9,0H32.859a9.01,9.01,0,0,1,9,9V30.6A9.01,9.01,0,0,1,32.859,39.6ZM15.676,9.106h0a5.456,5.456,0,0,1,5.456,5.308c.023.769.023,3.925.023,6.71-.017.743-.038,1.493-.058,2.218v.006c-.019.7-.039,1.431-.056,2.144a5.4,5.4,0,0,1-4.763,5.441c-.626.094-1,.3-.927,1.03a1.678,1.678,0,0,1,0,.328c-.022,1.2-.022,1.783.232,2.041a.615.615,0,0,0,.467.155,8.274,8.274,0,0,0,1.744-.365,8.838,8.838,0,0,0,6.652-8.542c0-.136,0-.276.006-.424s.006-.322.006-.493c.006-.344.014-.753.023-1.207.056-2.831.149-7.569.022-9.122v-.068h-.012a1.39,1.39,0,0,0-.022-.248A11.618,11.618,0,0,0,23.1,9.8,8.705,8.705,0,0,0,12.332,6.337a8.884,8.884,0,0,0,3.352,17.116h3.775l-.034-3.4c-.494.023-.983.034-1.453.034-.731,0-1.46-.027-2.167-.08a6.725,6.725,0,0,1-3.19-.961,5.286,5.286,0,0,1-1.947-6.686,5.477,5.477,0,0,1,4.843-3.247ZM34.612,5.656a8.317,8.317,0,0,0-1.745.362A8.79,8.79,0,0,0,26.215,14.5c-.021,1.377-.045,2.777-.068,4.132v.007c-.027,1.579-.055,3.211-.079,4.828l2.209-.022A1.229,1.229,0,0,0,29.5,22.2c-.021-2.075.039-4.185.1-6.227v-.008q.02-.688.038-1.376a5.358,5.358,0,0,1,4.763-5.405c.628-.094,1-.3.917-1.022a1.509,1.509,0,0,1,0-.326c.022-1.188.021-1.77-.232-2.027A.617.617,0,0,0,34.612,5.656Z" transform="translate(0 0)" fill="#5bbdbe"></path></g></g></svg>