<svg xmlns="http://www.w3.org/2000/svg" width="388.195" height="80.587" viewBox="0 0 388.195 80.587">
  <g id="GR" transform="translate(7474.23 1198.849)">
    <path id="XMLID_1_" d="M10.359-2.609a1.683,1.683,0,0,0-.377.034,2.281,2.281,0,0,0-.754.137A3.475,3.475,0,0,0,7.135-.826C1.918,7.857-.515,22.05-1.664,34.455c-1.019,11-.956,20.53-.939,22.534A3.674,3.674,0,0,0-.512,60.212C.517,60.692,5.9,63.2,10.359,63.2c4.321,0,9.7-2.469,10.733-2.983a3.58,3.58,0,0,0,2.057-3.223c0-.446.069-3.532-.069-8.161l1.509-6.172C28.5,26.779,31.07,16.285,31.07,4.318a2.924,2.924,0,0,0-1.337-2.435C24.178-1.58,12.725-2.472,10.667-2.575a.949.949,0,0,0-.309-.034m-.034,60.078v-.137l1.029-53.8c8.47,15.122,6.138,47.562,6.07,52.054a18.21,18.21,0,0,1-7.1,1.886M10.359-10a8.354,8.354,0,0,1,.915.056c2.354.133,15.148,1.053,22.369,5.555a10.411,10.411,0,0,1,4.818,8.707c0,12.912-2.808,24.318-6.7,40.1l-1.27,5.2c.089,3.6.059,6.15.047,7.11a11.029,11.029,0,0,1-6.218,10.13c-1.185.593-7.769,3.728-13.966,3.728-5.056,0-10.4-2-14-3.677a11.094,11.094,0,0,1-6.355-9.736c-.038-4.516.04-13.379.968-23.4C-7.421,16.471-4.116,3.55.8-4.632A10.6,10.6,0,0,1,7.127-9.524a7.845,7.845,0,0,1,2.4-.431C9.83-9.983,10.123-10,10.359-10Z" transform="translate(-7464.231 -1188.849)" fill="#baa147"/>
    <path id="Trazado_59507" data-name="Trazado 59507" d="M24.15,38.25v-5.5Q21.6,36.5,16.4,36.5q-5.15,0-7.7-3.475A14.441,14.441,0,0,1,6.15,24.25v-1A14.441,14.441,0,0,1,8.7,14.475Q11.25,11,16.4,11q5.55,0,8,4.25l.5-3.75h1.5L26.15,19V38.5a10.851,10.851,0,0,1-2.325,7.25Q21.5,48.5,16.4,48.5T8.975,45.75A10.851,10.851,0,0,1,6.65,38.5V38h2q0,4.45,1.825,6.525T16.4,46.6q4.15,0,5.95-2.1T24.15,38.25Zm0-20.75q-2.85-4.6-7.5-4.6a7.4,7.4,0,0,0-6.25,2.8,12.092,12.092,0,0,0-2.15,7.55v1A12.092,12.092,0,0,0,10.4,31.8a7.4,7.4,0,0,0,6.25,2.8q4.65,0,7.5-4.6ZM53.9,25.7H34.5q.1,5.1,2.275,8T43.4,36.6q4.25,0,6.375-2.15A6.841,6.841,0,0,0,51.9,29.5h2v.2a8.48,8.48,0,0,1-2.7,6.05q-2.7,2.75-7.8,2.75-5.5,0-8.25-3.7a15.6,15.6,0,0,1-2.75-9.55v-1a15.91,15.91,0,0,1,2.675-9.55Q37.75,11,43.15,11t8.075,3.7A15.91,15.91,0,0,1,53.9,24.25ZM43.15,12.9a7.434,7.434,0,0,0-6.4,2.925A13.679,13.679,0,0,0,34.5,23.8H51.8a13.559,13.559,0,0,0-2.275-7.975A7.448,7.448,0,0,0,43.15,12.9ZM78.9,38h-2V19.5q0-3.4-1.75-5a6.77,6.77,0,0,0-4.75-1.6,9.212,9.212,0,0,0-8.25,4.6V38h-2V19l-.25-7.5h1.5l.45,3.9Q64.6,11,70.9,11a7.755,7.755,0,0,1,5.85,2.225A8.3,8.3,0,0,1,78.9,19.25Zm27.5-12.3H87q.1,5.1,2.275,8T95.9,36.6q4.25,0,6.375-2.15A6.841,6.841,0,0,0,104.4,29.5h2v.2a8.48,8.48,0,0,1-2.7,6.05Q101,38.5,95.9,38.5q-5.5,0-8.25-3.7a15.6,15.6,0,0,1-2.75-9.55v-1a15.91,15.91,0,0,1,2.675-9.55Q90.25,11,95.65,11t8.075,3.7a15.91,15.91,0,0,1,2.675,9.55ZM95.65,12.9a7.434,7.434,0,0,0-6.4,2.925A13.679,13.679,0,0,0,87,23.8h17.3a13.559,13.559,0,0,0-2.275-7.975A7.448,7.448,0,0,0,95.65,12.9ZM121.9,11l.75.05V12.9h-.5a7.3,7.3,0,0,0-4.55,1.3,12.307,12.307,0,0,0-2.95,3.3V38h-2V19l-.25-7.5h1.5l.45,3.75A8.264,8.264,0,0,1,121.9,11Zm23.25,27-.5-4q-3.35,4.5-9.75,4.5a7.7,7.7,0,0,1-5.45-1.9,6.618,6.618,0,0,1-2.05-5.1V31a8.081,8.081,0,0,1,.725-3.55,5.638,5.638,0,0,1,2.05-2.35,12.38,12.38,0,0,1,2.625-1.3,16.6,16.6,0,0,1,3-.7l8.6-1.35v-1q0-4.05-1.575-5.95T137.4,12.9q-4,0-5.5,1.95a8.665,8.665,0,0,0-1.5,5.4h-2V19.8a11.557,11.557,0,0,1,.375-3,9.6,9.6,0,0,1,1.3-2.8,6.1,6.1,0,0,1,2.8-2.2A11.506,11.506,0,0,1,137.4,11q9,0,9,9.75V30.5l.25,7.5Zm-10-1.4q6.45,0,9.25-5v-8l-8.75,1.45q-6.25,1.1-6.25,5.95v.5a4.972,4.972,0,0,0,1.45,3.625A5.774,5.774,0,0,0,135.15,36.6Zm29.6-25.7h.45l.3.05v4.8h-.9a7.413,7.413,0,0,0-6.6,3.4V38h-5V19l-.35-7.5h4.3l.5,3.4A8.31,8.31,0,0,1,164.75,10.9ZM192.7,26.65H174.55q.3,7.95,6.95,7.95a6.7,6.7,0,0,0,4.725-1.55A4.721,4.721,0,0,0,187.9,29.5h4.8v.2a8.149,8.149,0,0,1-2.95,6.25q-2.95,2.65-8.3,2.65-5.95,0-8.95-3.675a14.66,14.66,0,0,1-3-9.575v-1.2a14.743,14.743,0,0,1,2.975-9.575Q175.45,10.9,181.2,10.9q5.7,0,8.6,3.675a15,15,0,0,1,2.9,9.575ZM181.1,14.9q-6.3,0-6.55,7.95h13.1Q187.35,14.9,181.1,14.9Zm20.85,10.55a11.181,11.181,0,0,0,1.6,6.45,6.436,6.436,0,0,0,9.15.725,5.832,5.832,0,0,0,1.4-4.025h4.8v.9a8.7,8.7,0,0,1-2.7,6.45q-2.7,2.65-7.9,2.65-5.7,0-8.55-3.625a14.97,14.97,0,0,1-2.85-9.525v-1.4a14.97,14.97,0,0,1,2.85-9.525Q202.6,10.9,208.3,10.9q5.2,0,7.9,2.75a9.2,9.2,0,0,1,2.7,6.7V21.4h-4.8a6.653,6.653,0,0,0-1.4-4.45,5.329,5.329,0,0,0-4.3-1.65,5.511,5.511,0,0,0-4.85,2.3,11.181,11.181,0,0,0-1.6,6.45Zm44.3,1.2H228.1q.3,7.95,6.95,7.95a6.7,6.7,0,0,0,4.725-1.55,4.721,4.721,0,0,0,1.675-3.55h4.8v.2a8.149,8.149,0,0,1-2.95,6.25q-2.95,2.65-8.3,2.65-5.95,0-8.95-3.675a14.66,14.66,0,0,1-3-9.575v-1.2a14.743,14.743,0,0,1,2.975-9.575Q229,10.9,234.75,10.9q5.7,0,8.6,3.675a15,15,0,0,1,2.9,9.575ZM234.65,14.9q-6.3,0-6.55,7.95h13.1Q240.9,14.9,234.65,14.9Zm24.2-3.4h7.9v4.45h-7.9v13.5q0,2.75,1.125,3.75a5.207,5.207,0,0,0,3.525,1,7.865,7.865,0,0,0,2.75-.4V38a9.3,9.3,0,0,1-3.9.6q-8.5,0-8.5-8.6V15.95H249.7V11.5h4.15V4h5ZM288.2,38l-.5-3.4a10.87,10.87,0,0,1-9,4,7.687,7.687,0,0,1-5.8-2.075,7.489,7.489,0,0,1-2-5.425v-.5q0-3.95,2.4-5.775a14,14,0,0,1,6.55-2.425l7.35-1.15v-.4a7.075,7.075,0,0,0-1.175-4.525Q284.85,14.9,281.9,14.9q-5.25,0-5.25,5.35H271.9V19.8a9.152,9.152,0,0,1,2.3-6.325q2.3-2.575,7.85-2.575,5.5,0,7.825,2.575T292.2,20.85V30.5l.35,7.5Zm-7.9-3.6a7.74,7.74,0,0,0,6.9-3.45V24.5l-6.6,1.1q-4.75.75-4.75,4.5v.4a3.771,3.771,0,0,0,1.125,2.775A4.51,4.51,0,0,0,280.3,34.4Zm27.95.2a6.647,6.647,0,0,0,4.125-1.1,3.586,3.586,0,0,0,1.425-3,3.272,3.272,0,0,0-1.35-2.975,10.9,10.9,0,0,0-4.8-1.125q-5.3-.5-7.5-2.2a5.931,5.931,0,0,1-2.2-5v-.35a6.9,6.9,0,0,1,2.775-5.875A12.294,12.294,0,0,1,308.25,10.9q10.35,0,10.35,9v.2h-4.95a5.444,5.444,0,0,0-1.25-3.875q-1.25-1.325-4.15-1.325a6.618,6.618,0,0,0-3.9,1,3.293,3.293,0,0,0-1.4,2.85,3.244,3.244,0,0,0,1.225,2.8q1.225.9,4.675,1.2,5.2.4,7.625,2.025T318.9,30.1v.3a7.262,7.262,0,0,1-2.775,5.975Q313.35,38.6,308.25,38.6q-5.35,0-7.975-2.475A8.081,8.081,0,0,1,297.65,30v-.2h4.95Q302.6,34.6,308.25,34.6Z" transform="translate(-7404.935 -1184.403)" fill="#baa147"/>
  </g>
</svg>
