<svg xmlns="http://www.w3.org/2000/svg" width="129.472" height="63.085" viewBox="0 0 129.472 63.085">
  <path id="Trazado_59580" data-name="Trazado 59580" d="M4.9,59.252a8.546,8.546,0,0,1-4.9-7.5c-.03-3.479.031-10.307.746-18.027C1.986,20.394,4.532,10.439,8.32,4.135A8.166,8.166,0,0,1,13.195.367,6.016,6.016,0,0,1,15.042.035C15.277.013,15.5,0,15.684,0a6.5,6.5,0,0,1,.706.043c1.813.1,11.669.811,17.233,4.28a8.022,8.022,0,0,1,3.712,6.708c0,9.948-2.164,18.735-5.158,30.9l-.978,4c.068,2.77.045,4.738.036,5.478a8.5,8.5,0,0,1-4.791,7.8c-.913.456-5.985,2.872-10.759,2.872C11.789,62.085,7.671,60.545,4.9,59.252ZM15.394,5.72a1.747,1.747,0,0,0-.581.106A2.679,2.679,0,0,0,13.2,7.068c-4.019,6.69-5.9,17.624-6.78,27.181-.785,8.478-.736,15.817-.724,17.36A2.834,2.834,0,0,0,7.31,54.093c.792.369,4.94,2.3,8.375,2.3,3.328,0,7.476-1.9,8.269-2.3a2.76,2.76,0,0,0,1.585-2.484c0-.343.052-2.721-.053-6.287l1.163-4.755C29.66,28.335,31.64,20.251,31.64,11.03a2.253,2.253,0,0,0-1.03-1.876C26.33,6.487,17.507,5.8,15.922,5.72a.739.739,0,0,0-.238-.026A1.31,1.31,0,0,0,15.394,5.72Zm53.59,51.489a6.355,6.355,0,0,1-1.46-4.4,6.338,6.338,0,0,1,1.465-4.4,5.377,5.377,0,0,1,7.721,0,6.357,6.357,0,0,1,1.46,4.4,6.359,6.359,0,0,1-1.46,4.4,5.385,5.385,0,0,1-7.727,0Zm1.089-7.856a5.3,5.3,0,0,0-1.033,3.459,5.3,5.3,0,0,0,1.033,3.46,3.7,3.7,0,0,0,5.554,0,5.279,5.279,0,0,0,1.039-3.46,5.278,5.278,0,0,0-1.039-3.459,3.694,3.694,0,0,0-5.554,0ZM57.6,57.22a6.394,6.394,0,0,1-1.443-4.408A6.408,6.408,0,0,1,57.6,48.421a5.331,5.331,0,0,1,7.12-.517,4.331,4.331,0,0,1,1.522,2.763h-1.46a3.2,3.2,0,0,0-1.129-1.853,3.381,3.381,0,0,0-2.207-.719A3.342,3.342,0,0,0,58.7,49.376a5.333,5.333,0,0,0-1.028,3.436,5.305,5.305,0,0,0,1.033,3.448,3.369,3.369,0,0,0,2.751,1.269,3.487,3.487,0,0,0,2.184-.674,3.053,3.053,0,0,0,1.14-1.819h1.472a4.185,4.185,0,0,1-1.567,2.746,5.007,5.007,0,0,1-3.24,1.061A4.894,4.894,0,0,1,57.6,57.22Zm-5,1.229a1,1,0,0,1-.309-.741,1.01,1.01,0,0,1,.309-.752,1.027,1.027,0,0,1,.747-.3,1.009,1.009,0,0,1,.742.3,1.022,1.022,0,0,1,.3.752,1.034,1.034,0,0,1-1.044,1.044A1.027,1.027,0,0,1,52.6,58.45Zm41.772.2V51a3,3,0,0,0-.718-2.128,2.588,2.588,0,0,0-1.988-.77A2.72,2.72,0,0,0,89.563,49a3.276,3.276,0,0,0-.814,2.3v7.356H87.256V50.87a2.757,2.757,0,0,0-.735-2.005,2.58,2.58,0,0,0-1.938-.758,2.7,2.7,0,0,0-2.122.943,3.533,3.533,0,0,0-.832,2.425v7.177H80.147V46.973h1.4v2.155h.033a3.581,3.581,0,0,1,1.281-1.706,3.53,3.53,0,0,1,2.122-.641,3.487,3.487,0,0,1,2.151.669,3.384,3.384,0,0,1,1.229,1.791H88.4a3.787,3.787,0,0,1,1.409-1.78,3.9,3.9,0,0,1,2.274-.68,3.65,3.65,0,0,1,2.74,1.062,3.873,3.873,0,0,1,1.033,2.824v7.985ZM15.658,51.873l.792-41.45c6.525,11.651,4.729,36.642,4.676,40.1a14.032,14.032,0,0,1-5.468,1.453ZM119.308,37.855a3.726,3.726,0,0,1-1.561-2.841h3.2a1.723,1.723,0,0,0,.7,1.179,2.611,2.611,0,0,0,1.555.416,2.692,2.692,0,0,0,1.465-.343,1.061,1.061,0,0,0,.534-.938.9.9,0,0,0-.337-.735,2.938,2.938,0,0,0-1.146-.466l-2.224-.494q-3.448-.786-3.448-3.481a3.283,3.283,0,0,1,1.382-2.758,6.006,6.006,0,0,1,3.7-1.039,5.784,5.784,0,0,1,3.627,1.056,3.459,3.459,0,0,1,1.4,2.808h-3.021a1.517,1.517,0,0,0-.6-1.146,2.779,2.779,0,0,0-2.819-.062,1.09,1.09,0,0,0-.511.938q0,.876,1.572,1.247l2.3.494a5.423,5.423,0,0,1,2.6,1.174,2.816,2.816,0,0,1,.791,2.117,3.362,3.362,0,0,1-1.482,2.853,6.437,6.437,0,0,1-3.875,1.078A6.256,6.256,0,0,1,119.308,37.855ZM85.97,37.248a6.352,6.352,0,0,1-1.578-4.559,6.578,6.578,0,0,1,1.572-4.611,6.087,6.087,0,0,1,8.4-.084,6.13,6.13,0,0,1,1.55,4.391v1h-8.3v.2a2.924,2.924,0,0,0,.759,2.094,2.626,2.626,0,0,0,2,.8,2.849,2.849,0,0,0,1.55-.41,2.007,2.007,0,0,0,.876-1.106h3.01a4.182,4.182,0,0,1-1.769,2.858,6.191,6.191,0,0,1-3.722,1.084A5.715,5.715,0,0,1,85.97,37.248Zm2.482-7.738a2.9,2.9,0,0,0-.8,1.865h5.109a2.8,2.8,0,0,0-.746-1.876,2.362,2.362,0,0,0-1.78-.719A2.388,2.388,0,0,0,88.452,29.51Zm-15,7.721a6.421,6.421,0,0,1-1.595-4.61,6.386,6.386,0,0,1,1.6-4.576,5.652,5.652,0,0,1,4.307-1.69,5.592,5.592,0,0,1,3.88,1.325,4.743,4.743,0,0,1,1.589,3.415H80.192a2.637,2.637,0,0,0-.77-1.572,2.422,2.422,0,0,0-3.537.387,4.6,4.6,0,0,0-.7,2.713,4.636,4.636,0,0,0,.7,2.741,2.255,2.255,0,0,0,1.937.977,2.3,2.3,0,0,0,1.595-.555,2.531,2.531,0,0,0,.775-1.544h3.055a4.626,4.626,0,0,1-1.606,3.4,6.456,6.456,0,0,1-8.187-.41Zm-12.785.017a6.352,6.352,0,0,1-1.579-4.559,6.582,6.582,0,0,1,1.572-4.611,6.087,6.087,0,0,1,8.4-.084,6.13,6.13,0,0,1,1.55,4.391v1h-8.3v.2a2.924,2.924,0,0,0,.758,2.094,2.626,2.626,0,0,0,2,.8,2.844,2.844,0,0,0,1.55-.41,2.008,2.008,0,0,0,.877-1.106h3.01a4.187,4.187,0,0,1-1.769,2.858,6.191,6.191,0,0,1-3.722,1.084A5.712,5.712,0,0,1,60.668,37.248Zm2.481-7.738a2.907,2.907,0,0,0-.8,1.865h5.11A2.8,2.8,0,0,0,66.71,29.5a2.362,2.362,0,0,0-1.78-.719A2.391,2.391,0,0,0,63.149,29.51Zm43.2,8.311a3.363,3.363,0,0,1-1.146-2.628,3.062,3.062,0,0,1,1.213-2.571,6.23,6.23,0,0,1,3.47-1.067l3.032-.179v-.8a1.635,1.635,0,0,0-.545-1.3A2.183,2.183,0,0,0,110.9,28.8a2.465,2.465,0,0,0-1.466.405,1.645,1.645,0,0,0-.69,1.089h-3a3.669,3.669,0,0,1,1.516-2.858,6.1,6.1,0,0,1,3.785-1.084,5.811,5.811,0,0,1,3.706,1.1,3.537,3.537,0,0,1,1.392,2.92v8.277h-3.167V36.81h-.068a3.543,3.543,0,0,1-1.5,1.489,4.5,4.5,0,0,1-2.167.545A4.176,4.176,0,0,1,106.348,37.821Zm4.032-4.3a2.57,2.57,0,0,0-1.421.461,1.251,1.251,0,0,0-.5,1.033,1.278,1.278,0,0,0,.506,1.067,2.136,2.136,0,0,0,1.347.393,2.784,2.784,0,0,0,1.848-.634,2,2,0,0,0,.758-1.6v-.877Zm-11,4.414a3.142,3.142,0,0,1-.9-2.526V29.083h-1.7v-2.47h1.7V23.839h3.279v2.774h2.224v2.47h-2.224v5.762q0,1.358,1.416,1.359a4.877,4.877,0,0,0,.8-.057v2.415a7.12,7.12,0,0,1-1.562.135A4.708,4.708,0,0,1,99.379,37.933Zm-47.825.719V26.613h3.167V28.78h.068a3.319,3.319,0,0,1,1.056-1.751,2.764,2.764,0,0,1,1.808-.607,3.285,3.285,0,0,1,.932.123v2.886a3.151,3.151,0,0,0-1.191-.191,2.481,2.481,0,0,0-1.886.707,2.751,2.751,0,0,0-.674,1.976v6.728Zm1.758-16.6a3.523,3.523,0,0,1-1.578-2.325h1.539a2.62,2.62,0,0,0,1.184,1.421A4.033,4.033,0,0,0,56.6,21.7a3.707,3.707,0,0,0,2.588-.87,2.962,2.962,0,0,0,.96-2.308V16.17h-.033a4.145,4.145,0,0,1-1.555,1.876,4.289,4.289,0,0,1-2.443.718,4.41,4.41,0,0,1-3.577-1.639,6.616,6.616,0,0,1-1.353-4.347,6.607,6.607,0,0,1,1.359-4.357,4.445,4.445,0,0,1,3.6-1.64,4.258,4.258,0,0,1,2.443.724,4.4,4.4,0,0,1,1.6,1.937h.034V6.972h1.415V18.461a4.178,4.178,0,0,1-1.387,3.28,5.392,5.392,0,0,1-3.723,1.236A5.511,5.511,0,0,1,53.312,22.055Zm.41-12.673a5.359,5.359,0,0,0-1.011,3.408,5.292,5.292,0,0,0,1.011,3.386,3.23,3.23,0,0,0,2.661,1.274,3.332,3.332,0,0,0,2.723-1.285,5.223,5.223,0,0,0,1.039-3.387,5.245,5.245,0,0,0-1.039-3.391A3.325,3.325,0,0,0,56.383,8.1,3.219,3.219,0,0,0,53.722,9.382Zm52.969,8.512a3.148,3.148,0,0,1-1.073-2.476,2.9,2.9,0,0,1,1.084-2.381,5.438,5.438,0,0,1,3.105-1.011l3.639-.224V10.791a2.583,2.583,0,0,0-.763-1.983,2.991,2.991,0,0,0-2.123-.713,3.408,3.408,0,0,0-2.083.595,2.542,2.542,0,0,0-.994,1.662h-1.437A3.53,3.53,0,0,1,107.4,7.77a4.943,4.943,0,0,1,3.195-.988,4.58,4.58,0,0,1,3.167,1.044,3.607,3.607,0,0,1,1.167,2.831v8h-1.415V16.429h-.033A3.831,3.831,0,0,1,111.9,18.18a4.571,4.571,0,0,1-2.4.663A4.071,4.071,0,0,1,106.691,17.894Zm3.3-4.688a3.8,3.8,0,0,0-2.122.668,1.859,1.859,0,0,0-.742,1.544,1.9,1.9,0,0,0,.742,1.55,2.989,2.989,0,0,0,1.931.595,3.725,3.725,0,0,0,2.594-.954,3.044,3.044,0,0,0,1.056-2.347V12.97ZM88.648,17.231a6.384,6.384,0,0,1-1.426-4.386,6.533,6.533,0,0,1,1.426-4.4,4.747,4.747,0,0,1,3.8-1.668,4.638,4.638,0,0,1,3.684,1.572,6.15,6.15,0,0,1,1.37,4.189v.629H88.75v.09a4.508,4.508,0,0,0,1.033,3.127,3.553,3.553,0,0,0,2.785,1.151,3.764,3.764,0,0,0,2.179-.607,2.667,2.667,0,0,0,1.134-1.595h1.472a3.9,3.9,0,0,1-1.589,2.522,5.251,5.251,0,0,1-3.228.983A4.925,4.925,0,0,1,88.648,17.231Zm1.208-8.063a4.331,4.331,0,0,0-1.1,2.824h7.21a4.143,4.143,0,0,0-1-2.824,3.272,3.272,0,0,0-2.55-1.085A3.344,3.344,0,0,0,89.856,9.168ZM65.042,17.231a6.38,6.38,0,0,1-1.426-4.386,6.529,6.529,0,0,1,1.426-4.4,4.745,4.745,0,0,1,3.8-1.668,4.636,4.636,0,0,1,3.683,1.572,6.15,6.15,0,0,1,1.371,4.189v.629H65.143v.09a4.512,4.512,0,0,0,1.033,3.127,3.556,3.556,0,0,0,2.785,1.151,3.768,3.768,0,0,0,2.179-.607,2.667,2.667,0,0,0,1.134-1.595h1.472a3.9,3.9,0,0,1-1.589,2.522,5.254,5.254,0,0,1-3.229.983A4.923,4.923,0,0,1,65.042,17.231Zm1.207-8.063a4.33,4.33,0,0,0-1.094,2.824h7.21a4.139,4.139,0,0,0-1-2.824,3.271,3.271,0,0,0-2.549-1.085A3.346,3.346,0,0,0,66.249,9.168Zm33.237,9.484V6.972h1.4V9.05h.033a3.232,3.232,0,0,1,1.1-1.668,2.934,2.934,0,0,1,1.853-.6,3.831,3.831,0,0,1,.921.123v1.46a2.773,2.773,0,0,0-1.112-.168,2.459,2.459,0,0,0-1.976.877,3.437,3.437,0,0,0-.742,2.3v7.277Zm-15.666,0V11.318a3.3,3.3,0,0,0-.8-2.37,2.991,2.991,0,0,0-2.273-.842,3.194,3.194,0,0,0-2.449,1,3.7,3.7,0,0,0-.931,2.628v6.918H75.879V6.972h1.4V9.129h.034a3.666,3.666,0,0,1,1.465-1.718,4.406,4.406,0,0,1,2.387-.629A3.991,3.991,0,0,1,84.2,7.938,4.363,4.363,0,0,1,85.3,11.083v7.57Z" transform="translate(0.5 0.5)" fill="#baa147" stroke="rgba(0,0,0,0)" stroke-width="1"/>
</svg>