<svg data-v-2ff781b0="" xmlns="http://www.w3.org/2000/svg" width="180.006" height="31.181" viewBox="0 0 180.006 31.181"><g data-v-2ff781b0="" id="Grupo_2238" data-name="Grupo 2238" transform="translate(-4715.61 2374.213)"><g data-v-2ff781b0="" id="Grupo_2237" data-name="Grupo 2237" transform="translate(4715.61 -2374.213)"><g data-v-2ff781b0="" id="Grupo_2235" data-name="Grupo 2235" transform="translate(0 0)"><path data-v-2ff781b0="" id="XMLID_1_" d="M15.957,3.282a1.385,1.385,0,0,0-.634-1.154C12.691.487,7.264.065,6.289.016A.45.45,0,0,0,6.143,0a.8.8,0,0,0-.179.016,1.081,1.081,0,0,0-.357.065,1.647,1.647,0,0,0-.991.764C-.129,8.742-.015,26.258,0,28.24a1.741,1.741,0,0,0,.991,1.527,14.121,14.121,0,0,0,5.151,1.414,13.772,13.772,0,0,0,5.086-1.414A1.7,1.7,0,0,0,12.2,28.24c0-.211.032-1.674-.032-3.867l.715-2.925C14.739,13.925,15.957,8.953,15.957,3.282ZM9.49,27.574a8.628,8.628,0,0,1-3.363.894V28.4L6.614,2.908C10.628,10.074,9.523,25.445,9.49,27.574Z" transform="translate(0.002)" fill="#baa147"></path><path data-v-2ff781b0="" id="XMLID_1_2" data-name="XMLID_1_" d="M3.814,29.394H3.57L3.814,1.827c5.039,7.211,4.141,24.3,4.1,26.6a11.585,11.585,0,0,1-4.1.965" transform="translate(2.176 0.1)" fill="#e0d3ad"></path></g></g><path data-v-2ff781b0="" id="Trazado_52734" data-name="Trazado 52734" d="M11.2,22.024v-2.75a4.367,4.367,0,0,1-3.875,1.875,4.464,4.464,0,0,1-3.85-1.737A7.22,7.22,0,0,1,2.2,15.024v-.5a7.22,7.22,0,0,1,1.275-4.387A4.464,4.464,0,0,1,7.325,8.4a4.259,4.259,0,0,1,4,2.125l.25-1.875h.75L12.2,12.4v9.749a5.425,5.425,0,0,1-1.162,3.625,4.6,4.6,0,0,1-3.712,1.375,4.6,4.6,0,0,1-3.712-1.375A5.425,5.425,0,0,1,2.45,22.149V21.9h1a4.858,4.858,0,0,0,.912,3.262A3.76,3.76,0,0,0,7.325,26.2a3.728,3.728,0,0,0,2.975-1.05A4.692,4.692,0,0,0,11.2,22.024Zm0-10.374a4.275,4.275,0,0,0-3.75-2.3,3.7,3.7,0,0,0-3.125,1.4A6.046,6.046,0,0,0,3.25,14.525v.5A6.046,6.046,0,0,0,4.325,18.8,3.7,3.7,0,0,0,7.45,20.2a4.275,4.275,0,0,0,3.75-2.3Zm14.874,4.1h-9.7a6.764,6.764,0,0,0,1.137,4,3.873,3.873,0,0,0,3.312,1.45,4.3,4.3,0,0,0,3.187-1.075,3.42,3.42,0,0,0,1.062-2.475h1v.1a4.24,4.24,0,0,1-1.35,3.025,5.223,5.223,0,0,1-3.9,1.375A4.809,4.809,0,0,1,16.7,20.3a7.8,7.8,0,0,1-1.375-4.775v-.5a7.954,7.954,0,0,1,1.337-4.775A4.654,4.654,0,0,1,20.7,8.4a4.654,4.654,0,0,1,4.037,1.85,7.954,7.954,0,0,1,1.337,4.775ZM20.7,9.35a3.717,3.717,0,0,0-3.2,1.462A6.839,6.839,0,0,0,16.374,14.8h8.649a6.779,6.779,0,0,0-1.137-3.987A3.724,3.724,0,0,0,20.7,9.35ZM38.572,21.9h-1V12.65a3.231,3.231,0,0,0-.875-2.5,3.385,3.385,0,0,0-2.375-.8,4.606,4.606,0,0,0-4.125,2.3V21.9h-1V12.4l-.125-3.75h.75l.225,1.95a4.923,4.923,0,0,1,4.525-2.2A3.877,3.877,0,0,1,37.5,9.512a4.152,4.152,0,0,1,1.075,3.012Zm13.749-6.15h-9.7a6.764,6.764,0,0,0,1.137,4,3.873,3.873,0,0,0,3.312,1.45,4.3,4.3,0,0,0,3.187-1.075,3.42,3.42,0,0,0,1.062-2.475h1v.1a4.24,4.24,0,0,1-1.35,3.025,5.223,5.223,0,0,1-3.9,1.375,4.809,4.809,0,0,1-4.125-1.85,7.8,7.8,0,0,1-1.375-4.775v-.5a7.954,7.954,0,0,1,1.337-4.775A4.654,4.654,0,0,1,46.947,8.4a4.654,4.654,0,0,1,4.037,1.85,7.954,7.954,0,0,1,1.337,4.775Zm-5.375-6.4a3.717,3.717,0,0,0-3.2,1.462A6.839,6.839,0,0,0,42.622,14.8h8.649a6.779,6.779,0,0,0-1.137-3.987A3.724,3.724,0,0,0,46.947,9.35ZM60.071,8.4l.375.025V9.35H60.2a3.651,3.651,0,0,0-2.275.65,6.153,6.153,0,0,0-1.475,1.65V21.9h-1V12.4l-.125-3.75h.75l.225,1.875A4.132,4.132,0,0,1,60.071,8.4ZM71.695,21.9l-.25-2a5.7,5.7,0,0,1-4.875,2.25,3.849,3.849,0,0,1-2.725-.95,3.309,3.309,0,0,1-1.025-2.55V18.4a4.04,4.04,0,0,1,.362-1.775,2.819,2.819,0,0,1,1.025-1.175,6.19,6.19,0,0,1,1.312-.65,8.3,8.3,0,0,1,1.5-.35l4.3-.675v-.5a4.619,4.619,0,0,0-.787-2.975,3.353,3.353,0,0,0-2.712-.95,3.29,3.29,0,0,0-2.75.975,4.332,4.332,0,0,0-.75,2.7h-1V12.8a5.778,5.778,0,0,1,.187-1.5,4.8,4.8,0,0,1,.65-1.4,3.052,3.052,0,0,1,1.4-1.1,5.753,5.753,0,0,1,2.262-.4q4.5,0,4.5,4.875v4.875l.125,3.75Zm-5-.7a4.883,4.883,0,0,0,4.625-2.5v-4l-4.375.725q-3.125.55-3.125,2.975v.25a2.486,2.486,0,0,0,.725,1.812A2.887,2.887,0,0,0,66.7,21.2Z" transform="translate(4737.054 -2373.73)" fill="#0c394e"></path><path data-v-2ff781b0="" id="Trazado_52735" data-name="Trazado 52735" d="M125.45,6.25h.225l.15.025v2.4h-.45a3.706,3.706,0,0,0-3.3,1.7V19.8h-2.5V10.3L119.4,6.55h2.15l.25,1.7A4.155,4.155,0,0,1,125.45,6.25Zm13.974,7.874h-9.074q.15,3.975,3.475,3.975a3.349,3.349,0,0,0,2.362-.775,2.36,2.36,0,0,0,.837-1.775h2.4v.1a4.074,4.074,0,0,1-1.475,3.125A6,6,0,0,1,133.8,20.1a5.437,5.437,0,0,1-4.475-1.837,7.329,7.329,0,0,1-1.5-4.787v-.6a7.371,7.371,0,0,1,1.487-4.787,5.282,5.282,0,0,1,4.362-1.837,5.145,5.145,0,0,1,4.3,1.837,7.5,7.5,0,0,1,1.45,4.787Zm-5.8-5.875q-3.15,0-3.275,3.975H136.9Q136.749,8.25,133.624,8.25Zm10.424,5.275a5.59,5.59,0,0,0,.8,3.225,3.218,3.218,0,0,0,4.575.362,2.916,2.916,0,0,0,.7-2.012h2.4v.45a4.348,4.348,0,0,1-1.35,3.225,5.414,5.414,0,0,1-3.95,1.325,5.1,5.1,0,0,1-4.275-1.812,7.484,7.484,0,0,1-1.425-4.762v-.7a7.484,7.484,0,0,1,1.425-4.762,5.1,5.1,0,0,1,4.275-1.812,5.294,5.294,0,0,1,3.95,1.375,4.6,4.6,0,0,1,1.35,3.35V11.5h-2.4a3.326,3.326,0,0,0-.7-2.225,2.664,2.664,0,0,0-2.15-.825,2.755,2.755,0,0,0-2.425,1.15,5.59,5.59,0,0,0-.8,3.225Zm22.148.6h-9.074q.15,3.975,3.475,3.975a3.349,3.349,0,0,0,2.362-.775,2.36,2.36,0,0,0,.837-1.775h2.4v.1a4.074,4.074,0,0,1-1.475,3.125,6,6,0,0,1-4.15,1.325,5.437,5.437,0,0,1-4.475-1.837,7.329,7.329,0,0,1-1.5-4.787v-.6a7.371,7.371,0,0,1,1.487-4.787,5.282,5.282,0,0,1,4.362-1.837,5.145,5.145,0,0,1,4.3,1.837,7.5,7.5,0,0,1,1.45,4.787ZM160.4,8.25q-3.15,0-3.275,3.975h6.549Q163.522,8.25,160.4,8.25Zm12.1-1.7h3.95V8.775H172.5v6.749a2.457,2.457,0,0,0,.562,1.875,2.6,2.6,0,0,0,1.762.5,3.932,3.932,0,0,0,1.375-.2v2.1a4.647,4.647,0,0,1-1.95.3q-4.25,0-4.25-4.3V8.775h-2.075V6.55H170V2.8h2.5ZM187.17,19.8l-.25-1.7a5.435,5.435,0,0,1-4.5,2,3.843,3.843,0,0,1-2.9-1.037,3.744,3.744,0,0,1-1-2.712V16.1a3.394,3.394,0,0,1,1.2-2.887A7,7,0,0,1,183,12l3.675-.575v-.2a3.537,3.537,0,0,0-.587-2.262,2.549,2.549,0,0,0-2.062-.712,2.342,2.342,0,0,0-2.625,2.675H179.02V10.7a4.576,4.576,0,0,1,1.15-3.162Q181.32,6.25,184.1,6.25a5.067,5.067,0,0,1,3.912,1.287,5.318,5.318,0,0,1,1.162,3.687v4.825l.175,3.75ZM183.22,18a3.869,3.869,0,0,0,3.45-1.725V13.049l-3.3.55Q181,13.974,181,15.849v.2a1.885,1.885,0,0,0,.562,1.387A2.255,2.255,0,0,0,183.22,18Zm13.974.1a3.323,3.323,0,0,0,2.062-.55,1.793,1.793,0,0,0,.712-1.5,1.636,1.636,0,0,0-.675-1.487,5.451,5.451,0,0,0-2.4-.562,7.464,7.464,0,0,1-3.75-1.1,2.965,2.965,0,0,1-1.1-2.5v-.175a3.452,3.452,0,0,1,1.387-2.937,6.146,6.146,0,0,1,3.762-1.037q5.175,0,5.175,4.5v.1h-2.475a2.722,2.722,0,0,0-.625-1.937,2.755,2.755,0,0,0-2.075-.662,3.309,3.309,0,0,0-1.95.5,1.646,1.646,0,0,0-.7,1.425,1.622,1.622,0,0,0,.612,1.4,4.989,4.989,0,0,0,2.337.6,8.144,8.144,0,0,1,3.812,1.012,2.968,2.968,0,0,1,1.212,2.662V16a3.631,3.631,0,0,1-1.387,2.987,6.153,6.153,0,0,1-3.937,1.112,5.63,5.63,0,0,1-3.987-1.237,4.04,4.04,0,0,1-1.312-3.062v-.1h2.475Q194.369,18.1,197.194,18.1Z" transform="translate(4693.098 -2371.568)" fill="#0c394e"></path></g></svg>