<svg xmlns="http://www.w3.org/2000/svg" width="370.305" height="62.085" viewBox="0 0 370.305 62.085">
  <g id="Grupo_4141" data-name="Grupo 4141" transform="translate(-9035.513 1151.652)">
    <path id="Trazado_59579" data-name="Trazado 59579" d="M4.9,59.252a8.548,8.548,0,0,1-4.9-7.5c-.029-3.479.032-10.307.746-18.027C1.986,20.394,4.532,10.439,8.32,4.135A8.166,8.166,0,0,1,13.195.367,6.016,6.016,0,0,1,15.042.035C15.277.013,15.5,0,15.684,0a6.5,6.5,0,0,1,.706.043c1.813.1,11.669.811,17.233,4.28a8.022,8.022,0,0,1,3.712,6.708c0,9.948-2.164,18.735-5.158,30.9l-.978,4c.068,2.77.045,4.738.036,5.478a8.5,8.5,0,0,1-4.791,7.8c-.913.456-5.985,2.872-10.759,2.872C11.789,62.085,7.671,60.545,4.9,59.252ZM15.394,5.72a1.751,1.751,0,0,0-.581.106A2.679,2.679,0,0,0,13.2,7.068c-4.019,6.69-5.894,17.624-6.78,27.181-.785,8.478-.736,15.817-.724,17.36A2.834,2.834,0,0,0,7.31,54.093c.792.369,4.94,2.3,8.375,2.3,3.328,0,7.476-1.9,8.269-2.3a2.76,2.76,0,0,0,1.585-2.484c0-.343.052-2.721-.053-6.287l1.163-4.755C29.66,28.335,31.64,20.251,31.64,11.03a2.253,2.253,0,0,0-1.03-1.876C26.33,6.487,17.507,5.8,15.922,5.72a.739.739,0,0,0-.238-.026A1.31,1.31,0,0,0,15.394,5.72Zm48.8,45.329A7.656,7.656,0,0,1,60.759,46H64.1a5.7,5.7,0,0,0,2.576,3.089,8.762,8.762,0,0,0,4.651,1.184,8.059,8.059,0,0,0,5.627-1.893,6.44,6.44,0,0,0,2.088-5.017v-5.1h-.074a8.99,8.99,0,0,1-3.381,4.077A9.313,9.313,0,0,1,70.28,43.9,9.585,9.585,0,0,1,62.5,40.332q-2.942-3.564-2.941-9.448,0-5.908,2.954-9.472a9.671,9.671,0,0,1,7.837-3.565,9.269,9.269,0,0,1,5.31,1.575,9.583,9.583,0,0,1,3.479,4.211h.074v-5.37h3.076V43.237a9.078,9.078,0,0,1-3.016,7.129,11.721,11.721,0,0,1-8.093,2.686A11.988,11.988,0,0,1,64.189,51.05ZM65.08,23.5a11.658,11.658,0,0,0-2.2,7.41,11.514,11.514,0,0,0,2.2,7.361,7.028,7.028,0,0,0,5.786,2.771,7.244,7.244,0,0,0,5.92-2.8,11.356,11.356,0,0,0,2.259-7.361,11.4,11.4,0,0,0-2.259-7.373,7.23,7.23,0,0,0-5.92-2.808A7.005,7.005,0,0,0,65.08,23.5ZM15.658,51.873l.792-41.45c6.525,11.651,4.729,36.642,4.676,40.1a14.032,14.032,0,0,1-5.468,1.453Zm334.724-9.955a8.1,8.1,0,0,1-3.393-6.177h6.958a3.754,3.754,0,0,0,1.526,2.564,5.686,5.686,0,0,0,3.381.9,5.864,5.864,0,0,0,3.186-.744,2.31,2.31,0,0,0,1.16-2.038,1.96,1.96,0,0,0-.733-1.6,6.411,6.411,0,0,0-2.49-1.013l-4.834-1.074q-7.5-1.709-7.5-7.569a7.131,7.131,0,0,1,3-5.993,13.045,13.045,0,0,1,8.032-2.258,12.582,12.582,0,0,1,7.886,2.294,7.516,7.516,0,0,1,3.052,6.1h-6.567a3.3,3.3,0,0,0-1.306-2.49,6.046,6.046,0,0,0-6.128-.134,2.369,2.369,0,0,0-1.111,2.038q0,1.9,3.417,2.71l5,1.075a11.778,11.778,0,0,1,5.652,2.551,6.121,6.121,0,0,1,1.722,4.6,7.309,7.309,0,0,1-3.223,6.2,13.988,13.988,0,0,1-8.423,2.344A13.6,13.6,0,0,1,350.383,41.918ZM277.91,40.6q-3.43-3.613-3.431-9.912,0-6.275,3.418-10.021a13.233,13.233,0,0,1,18.262-.184q3.368,3.564,3.369,9.546V32.2H281.487v.439a6.36,6.36,0,0,0,1.648,4.553,5.712,5.712,0,0,0,4.358,1.746,6.2,6.2,0,0,0,3.369-.891,4.364,4.364,0,0,0,1.9-2.4h6.543a9.1,9.1,0,0,1-3.845,6.214,13.456,13.456,0,0,1-8.094,2.355Q281.34,44.213,277.91,40.6Zm5.4-16.821a6.31,6.31,0,0,0-1.746,4.053h11.109a6.092,6.092,0,0,0-1.624-4.077,5.132,5.132,0,0,0-3.87-1.562A5.188,5.188,0,0,0,283.306,23.779ZM250.7,40.564q-3.467-3.65-3.467-10.022,0-6.273,3.479-9.949a12.281,12.281,0,0,1,9.363-3.674A12.152,12.152,0,0,1,268.51,19.8a10.3,10.3,0,0,1,3.454,7.421h-6.616a5.743,5.743,0,0,0-1.672-3.418,5.265,5.265,0,0,0-7.691.842,9.986,9.986,0,0,0-1.526,5.9,10.069,10.069,0,0,0,1.526,5.957,4.9,4.9,0,0,0,4.211,2.124,4.983,4.983,0,0,0,3.467-1.209,5.506,5.506,0,0,0,1.685-3.356h6.64a10.059,10.059,0,0,1-3.491,7.4,12.426,12.426,0,0,1-8.374,2.758Q254.167,44.213,250.7,40.564Zm-27.8.036q-3.43-3.613-3.43-9.912,0-6.275,3.417-10.021a13.233,13.233,0,0,1,18.262-.184q3.37,3.564,3.37,9.546V32.2H226.481v.439a6.36,6.36,0,0,0,1.648,4.553,5.714,5.714,0,0,0,4.358,1.746,6.2,6.2,0,0,0,3.37-.891,4.364,4.364,0,0,0,1.9-2.4H244.3a9.1,9.1,0,0,1-3.846,6.214,13.453,13.453,0,0,1-8.093,2.355Q226.335,44.213,222.9,40.6Zm5.4-16.821a6.314,6.314,0,0,0-1.746,4.053h11.109a6.087,6.087,0,0,0-1.624-4.077,5.129,5.129,0,0,0-3.869-1.562A5.19,5.19,0,0,0,228.3,23.779Zm93.909,18.067a7.308,7.308,0,0,1-2.49-5.713,6.661,6.661,0,0,1,2.637-5.591q2.637-2.026,7.544-2.319l6.592-.391V26.1a3.545,3.545,0,0,0-1.184-2.831,4.735,4.735,0,0,0-3.21-1.026,5.366,5.366,0,0,0-3.186.879,3.588,3.588,0,0,0-1.5,2.368h-6.519a7.976,7.976,0,0,1,3.3-6.214,13.257,13.257,0,0,1,8.228-2.355,12.632,12.632,0,0,1,8.057,2.392,7.688,7.688,0,0,1,3.027,6.348V43.652h-6.884v-4h-.147a7.7,7.7,0,0,1-3.271,3.235,9.784,9.784,0,0,1-4.712,1.183A9.073,9.073,0,0,1,322.209,41.846Zm8.764-9.351a5.584,5.584,0,0,0-3.088,1,2.718,2.718,0,0,0-1.086,2.245,2.782,2.782,0,0,0,1.1,2.319,4.641,4.641,0,0,0,2.93.855,6.047,6.047,0,0,0,4.016-1.38,4.345,4.345,0,0,0,1.648-3.479v-1.9ZM180.229,42a6.847,6.847,0,0,1-2.331-5.383,6.3,6.3,0,0,1,2.356-5.176,11.8,11.8,0,0,1,6.75-2.2l7.91-.489v-2.2a5.608,5.608,0,0,0-1.66-4.309A6.5,6.5,0,0,0,188.64,20.7,7.409,7.409,0,0,0,184.111,22a5.517,5.517,0,0,0-2.161,3.614h-3.125A7.67,7.67,0,0,1,181.767,20a10.745,10.745,0,0,1,6.946-2.149,9.951,9.951,0,0,1,6.885,2.271,7.838,7.838,0,0,1,2.539,6.152V43.652h-3.076V38.818h-.073a8.347,8.347,0,0,1-3.442,3.809,9.946,9.946,0,0,1-5.225,1.44A8.856,8.856,0,0,1,180.229,42Zm7.166-10.193a8.278,8.278,0,0,0-4.614,1.453,4.043,4.043,0,0,0-1.611,3.357,4.118,4.118,0,0,0,1.611,3.369,6.5,6.5,0,0,0,4.2,1.294,8.1,8.1,0,0,0,5.639-2.075,6.612,6.612,0,0,0,2.295-5.1V31.3Zm-46.387,8.752q-3.1-3.5-3.1-9.534a14.2,14.2,0,0,1,3.1-9.558,10.314,10.314,0,0,1,8.252-3.626,10.085,10.085,0,0,1,8.008,3.418,13.372,13.372,0,0,1,2.978,9.106v1.367H141.227v.2a9.8,9.8,0,0,0,2.246,6.8,7.73,7.73,0,0,0,6.055,2.5,8.193,8.193,0,0,0,4.736-1.319,5.806,5.806,0,0,0,2.466-3.467h3.2a8.468,8.468,0,0,1-3.455,5.481,11.422,11.422,0,0,1-7.019,2.136A10.706,10.706,0,0,1,141.008,40.564Zm2.624-17.529a9.419,9.419,0,0,0-2.38,6.14h15.673a9,9,0,0,0-2.173-6.14,7.113,7.113,0,0,0-5.542-2.356A7.274,7.274,0,0,0,143.632,23.035ZM89.689,40.564q-3.1-3.5-3.1-9.534a14.2,14.2,0,0,1,3.1-9.558,10.315,10.315,0,0,1,8.252-3.626,10.083,10.083,0,0,1,8.007,3.418q2.979,3.418,2.979,9.106v1.367H89.909v.2a9.8,9.8,0,0,0,2.246,6.8,7.729,7.729,0,0,0,6.054,2.5,8.194,8.194,0,0,0,4.737-1.319,5.809,5.809,0,0,0,2.466-3.467h3.2a8.466,8.466,0,0,1-3.454,5.481,11.424,11.424,0,0,1-7.019,2.136A10.7,10.7,0,0,1,89.689,40.564Zm2.624-17.529a9.425,9.425,0,0,0-2.381,6.14h15.674a9,9,0,0,0-2.174-6.14,7.111,7.111,0,0,0-5.541-2.356A7.274,7.274,0,0,0,92.314,23.035ZM307.06,42.089q-1.966-1.66-1.966-5.493V22.851h-3.686V17.48h3.686V11.45h7.129v6.03h4.834v5.371h-4.834V35.375q0,2.955,3.076,2.955a10.725,10.725,0,0,0,1.733-.122v5.249a15.48,15.48,0,0,1-3.394.293Q309.026,43.75,307.06,42.089ZM203.093,43.652V17.48h6.884v4.712h.147a7.218,7.218,0,0,1,2.295-3.809,6.008,6.008,0,0,1,3.93-1.318,7.1,7.1,0,0,1,2.027.269v6.274a6.839,6.839,0,0,0-2.588-.415,5.4,5.4,0,0,0-4.1,1.538,5.98,5.98,0,0,0-1.464,4.3V43.652Zm-38.525,0V18.262h3.051v4.516h.074a7.028,7.028,0,0,1,2.392-3.625,6.377,6.377,0,0,1,4.028-1.307,8.29,8.29,0,0,1,2,.269v3.173a6.008,6.008,0,0,0-2.417-.366,5.346,5.346,0,0,0-4.3,1.9,7.484,7.484,0,0,0-1.612,5v15.82Zm-34.058,0V27.71a7.167,7.167,0,0,0-1.746-5.152,6.5,6.5,0,0,0-4.944-1.831A6.939,6.939,0,0,0,118.5,22.9a8.038,8.038,0,0,0-2.026,5.712V43.652h-3.223V18.262H116.3v4.687h.073a7.972,7.972,0,0,1,3.187-3.736,9.584,9.584,0,0,1,5.188-1.367,8.677,8.677,0,0,1,6.58,2.515,9.483,9.483,0,0,1,2.4,6.836V43.652Z" transform="translate(9035.513 -1151.652)" fill="#baa147"/>
  </g>
</svg>