<svg xmlns="http://www.w3.org/2000/svg" width="912.665" height="985.107" viewBox="0 0 912.665 985.107"><g id="mapa" transform="translate(-839.117 -4293.328)"><g id="lugares" transform="translate(-2611.597 2957.873)"><a title="Portugal"><path id="PT" title="Portugal" d="M1035.166,538.386l-20.829,14.582-26.012-8.361-25.084,6.5L971.6,504.66l-2.787-36.232-22.3-5.574-10.219-22.3,4.646-39.019,20.438-21.367,4.645-24.154,11.148-35.3V295.631l-8.361-21.367-2.2-13.075,17.988-22.228,20.438-8.361,11.148,28.8,23.108-7.432h13.125l28.8,1.858,12.077,29.728-19.152,20.852-5.931,41.392-7.432,8.361-2.787,28.8-2.787,11.765,1.858,40.262-16.722,26.939,16.722,17.651-7.432,15.793-18.58,22.3,4.107,20.72Z" transform="translate(2635.297 1587.024)" fill="#E0D3AD" stroke="#BAA147" stroke-linecap="round" stroke-linejoin="round" stroke-width="1"></path></a><path id="MA" title="Marruecos" d="M2001.294,327.254l27.527,59.4H1636.535l48.925-56.5,26.078-57.951,56.5,1.449,44.911,39.117,73.888-5.8,79.682,20.283h34.771Z" transform="translate(2037.963 1933.808)" fill="transparent" stroke="#000" stroke-linecap="round" stroke-linejoin="round" stroke-width="0.2"></path><a title="Francia"><path id="FR" title="Francia" d="M1410.022,263.5l9.65,4.386,12.282-.877,21.054,14.036,63.162,10.527-21.054,36.845-3.508,39.476-11.4,9.65-20.177-5.264,1.755,14.036-31.581,30.7v25.44l21.053-8.773,15.791,23.686-.878,15.79,13.158,21.054-14.913,16.668,13.158,42.986,24.564,7.018-4.387,23.686-39.476,31.581-89.479-14.913-64.917,18.422L1298.611,653l-11.239,17.284-58.913-12.2L1179.3,646.863,1067.036,608.1l11.542-15.015,23.528-26.05,8.773-110.534-44.74-57.9-32.458-28.072-66.672-21.054L963.5,309.12l57.021-11.4,72.812,14.036-13.158-62.285,41.231,23.686,100.007-42.108,13.158-44.74,36.844-11.4,7.019,19.3,19.3.877,21.054,21.931,30.7,25.44,21.932-4.386Z" transform="translate(2846.709 1161.055)" fill="#E0D3AD" stroke="#BAA147" stroke-linecap="round" stroke-linejoin="round" stroke-width="1"></path></a><a title="Andalucia"><path id="ES-AN" title="Andalucia" d="M539.225,294.546l-.017,1.074-2.064.856-.738,1.695-2.886.772-3.675-4.531-2.483-1.963-2.232-.4-2.735,1.745-2.265-1.51.587.6-.738-.537-3.775,1.091-2.819,5.42-1.141,1.225-2.416.956-3.2.1-1.963-1.359-1.594.587-3.373-3.255-2.433.805L484.69,297l-3.859.889-1.208,1.359-2.517,1.158-2.752-.185-2.114-1.594.185.386-1.51.2-2.114-1.661-2.517-.151-.923.973-1.728-.185-.638.772-.923-1.04-.805.453-3.071-1.409-5.571,1.594-5.118-1.259-1.661,1.376-3.541.52-6.645.185-3.054-.638-.973.889.067-.654-4.5,6.729-1.007,1.024-3.222,1.158-1.51,3.054-4.766,1.292-4.984-1.225-2.7.034-4.3,2.651-3.423.487-3.389,2-1.024-.05-1.93,2.232-1.292,3.759-3.1,4.43-1.04,4.212-1.175-.067-.973-1.225-1.812.185-1.007,1.946.772,3.994-1.544,1.158-.99-.218-5.537,2.668-1.661-2.366-1.947-1.04-1.661.352-2.55-1.56-.873.554-2.886-3.775-2.584-2.181-5.437.134-3.121-5.806-1.745-.654-1.695-3.96-1.678-1.527-3.306-7.3L344.8,309.8l1.745-.856-.537.554.587.168.1-.537-.2.7.873,1.678.218-.654.134.42,1.242-2.181.386-1.544-.419-.772-1.678.084-1.544-2.131-1.024.3.47-.3-.839-.386.151.805-.839-.889-.621.6-1.661-1.074-2.232-5.906,3.893-3.1-1.863-1.091-2.165-5.235-3.759-4.48-10.689-7.1-4.665-2.148-3.171-2.5,1.007,1.611,3.708,3.037-5.068-4.38-1.091-.134.654.7-.571-.034-4.514-2.064-12.367.956-1.661,1.326-1.628-.638-.5-2.785-.839-1.124.537-1.342-.94-2.1.05-4.547-1.04-1.107.839-.537-1.108-2.9.285-.99-.956-.638-.352-1.409-.906-.1-.554-1.762.7-.336.168-2.6,2.282-2.5,1.544-6.276,1.258-.386,4.262-4.329.889-3.222,1.191-1.695-.151-3.188,2.6-1.175,3.306-.017.185-1.493,1.124-.805,1.846,1.41,2.467-.218.956-4.682,1.577-2.886-.638-.352.05-.856,1.544-1.93h0l3.893,1.745,2.316-.067-.738,3.826,1.762-.034.05.722,1.057.453,1.208-.52,3.255.587.94-.453,1.158,1.225h0l.722.873h0l.2,2.232,1.107-.336h.537l3.255,1.258.52-.352-.268-1.024,1.225-.973-.42-.537,1.728-.168,2.081.537.47,1.93,1.242,1.057h0l.218.084h0l1.04,1.057,2.349.42.621.688,1.728-.168.94,1.242,2.97-2.534,2.987-.772,4.48.151.822-2.987,1.191-1.208-.956-1.225.134-.973,2.081-1.561.134-1.326,1.191-.94,2.366-.168.822-.638,1.158.285,1.309-.94,1.9.889.067,1.225-.436-.6-.52.285.436.906-2.081,1.326.319,2.332,1.292.386,3.238-3.238,2.383.369.319-1.074,1.728-.738-.252-1.292.587-1.107h0l.168-.084h0l.067-3.356-2.181-3.826.738-2.148-1.242-1.191.05-.923L380,199.555l1.208-.772h1.611l.218-1.208,3.1-2.1h0l-.185-.436h0l.654-1.124.789.436-.369-.839,1.04-1.728,2.853.285-.151-.856.873-1.074,1.628-.839,1.477-1.846.419.436.252-1.057.369.638.168-.587.554.453-.017-.889.789-.1h0l.067-.134h0l-.772-2.248,3.943.6,2.349-1.292h0l1.661.722.352,1.309,2.634.722,3.155-.134.856,4.111,6.88,2.366.2,1.124,1.712.285,1.98,1.493,1.309,2.131.369-.47.873.3.336.839.805-.3,4.01,4.715,7.534,3.356.822-.218-.419-1.9.621-1.158,6.108,1.208,9.85.638,2.7-.336,1.124-1.057.319-1.326,1.124-.336h0l.839-.268h0l1.913.654.453-.587,5.235,1.779,1.225-.638.269-2.517.638-.117,1.426.52.352,1.879,2.752.638,2.014-.5,2.2-1.98-.067-1.141h0l.185-.52h0l2.2-.7h0l.252.117h0l2.03,1.242,6.376,1.074,3.238-2.232,2.92,4.01.386-2.483,1.259-1.057,2.786.017,1.057.956.906-1.342,1.057-.571.352.436v-.57l1.779-.856.185-.722.336.285.487-1.292L511.153,197l3-1.04h.419l1.443,1.309-.185,4.43,4.094,1.04-.1,5.5,2,.923.268,1.208-.839,2.819.336,1.812-4.883,5.923,1.258.738h.587l4.178,2.215,3.725.336h0l1.863,1.309,2.1,3.742,3.675,2.853,2.2-.688,1.8,1.577,1.007-.587,1.862.856.738-.654.822.352h0l.285-.017h0l.336.436-.956,1.326-.621,3.843.621,2.769-.789,1.544.5,2.752h0l.3.319h0l6.846,11.075,1.644,1.208-.067-1.04,3.44.621,4.967,3.893h0l-2.248,1.175-1.477,2.752-4.178,4.531-2.248,8.944-2.349,4.547.218,2.3-.487.7h-1.527l-1.208,2.114-1.057.218-.587.789.185,2.332-1.8.856-1.04,1.577Z" transform="translate(3373.523 1852.255)" fill="#E0D3AD" stroke="#BAA147" stroke-width="1"></path></a><a title="Aragón"><path id="ES-AR" title="Aragon" d="M450.3,89.408l.47.923,3.138-.05,2.4,2.332,2.853-.52,4.4,3.071h0l1.108.218h0l.873-.268h0l.537-.5h0l4.212.252,1.275-1.51-.151-.822,2-3.692,1.561-1.561-.268-1.846h0l-.47.05h0l-1.41-.034-.654-2.047-1.477-1.225.319-3.339-1.141-2.416,1.175-3.306-.336-1.107,3.171-3.843-.235-1.007-1.107-.453.822-2.819,2.953-3.138-.554-2.987,1.074-2.081,1.611.889.956-.419h.235l.067-1.8,1.98-1.326-.94-.772,1.007.034.2-2.282,5.135.067.017-2.718.638-.587,2.584-.185,2.114-2.483,1.024.017.017-1.074,1.628-.134.772-1.493-.554-.755.185-2.953,1.678-1.326.134-2.114,1.577-1.191,2.635.117h0l-.386,1.426,1.611,1.091.839-.369.94,1.493,2.5,1.812.067,1.561,1.51-.017.05,1.527.7.268.386-.94.722-.034.1-1.091L511.6,38.9l2.819,2.03,1.443-.772,1.175.386,1.678-2.232.99.185.57-.94,2.5,1.779.688-.134.218.889,2.316,1.342,1.242-.688,2.483,4.8,1.695.185.319,1.393,2.114.621,1.091-.268.285-.738,1.628.319,1.242-1.141,1.644.252,2.215-.772.654-.873,3.809,1.309.185,1.393,1.393,1.225,1.208-.6.2-1.326L551,45.311l2.853,2.064,2.584-.571,1.745.52.487-.7,2.7.487.47-.654,2.92.889h0l.185.436h0l.369.235h0l1.024,1.376.453,2.248,2.819.7-1.158,4.111.42.638-.722-.319-.6.755-.067.873.889.47-1.141,1.107-.57-.436-.5.537,2.483,6.209-1.04,1.158,2.148.873-1.359.923,1.091.923-2.819,8.189-.2,1.007.772.537-.956.805.4,2.064-1.46,4.346-.654.4v2.534L564,91.086l-.2-.654-.906.3-.587,1.661-.822-.352L560.359,93.8l2.03,1.107-.52.117-.151,1.913.671.856-1.208.52-.034.7-1.107-.05-.554,1.93-1.359-.034-1.393,1.275-.7,2.165-3.138.419-.151,1.561-.52-.487-2.651,3.708-.067,1.141,1.46,1.762-.352,1.946,2.383.4,1.191-.554.889,3.591-2.282,3.171-2.534.352.571,2.03-1.577,3.373,2.416,2.534-1.174,1.493.956.722-.185.873.99,1.577-.352,2.534-.654-.084-.084.789-1.913.1-1.208,3.977-1.879.453-.285,1.175-1.51-.436-.57.671.017,2.4.856.151.5,1.628-.571.772.621-.3-.017.755.621-.352,1.493,1.208-.822.319,1.007,2.03h0l-.084.47h0l.57.369-1.829,3.054h0l.05.336h0l-.654,1.8,1.745,3.742-2,2.03-.235,1.175-2.4.738-.084.805-.654-.52.419.956h0l-1.04.873-1.779-.487-3.088,2.131h0l-.537-.185h0l-.537-1.695h0l-.017-.185h0l-.906-.285h0l-.906.05h0l-1.829.151-2.064-.973-1.628-1.443-.034-1.04-2.366.084-1.577,2.584-.268,2.97-3.238,1.846-1.024-1.158-2.232.839.436,3.138,2.081.621,1.409-.42-.319,5.722,1.091.94.2,1.342-2.819,1.141-.587.906,2.735,3.272.252,1.326-2.668,1.527-1.242,2.064-1.057-.05-.5.688.789,1.812-1.98,1.208-3.02.923-2.333-1.409-1.594,6.8-1.393.654-.839,1.376.6,1.946-.738-.218-2.3,1.779-3.306-.1-1.225,3.087-2.467.99-.084,3.171,1.879,2.517-3.406,2.014-1.93-1.46.5-1.057-.57-1.644.4-1.275-.738-1.493-.537.47-2.534-1.426-3.809.134-.923.638-1.091-.235-.369.621-.789-.554h0l-1.057-2.433h0l3.725-1.527.554-.789-.285-1.158-3.2-2.584-4.447-.218V201.8l-1.359-.839-.738-1.762h0l-.285-.722h0l-.05-.537-.906.772.017,2.987-.755.336h0l-.822.722h0l-1.04-.5-.822.336h0l-.5-.3h0l-2.148-.3h0l.487-3.188-1.611.688-1.594-1.074-1.46.755L457.432,192l-1.359,1.946-.4-1.46.42-.956,1.024-.084-1.107-1.275h0l-.268-.151h0l-2.232-2.819-1.225-.487.05-.638.369-.537.4.369,1.829-3.222,2.366-1.326-.419-2.819.4-2.416.889-.94,3.423,1.762,2.383-2.047-.805-1.057,1.259-4.329-1.108-3.087.906-1.258.118-2.114-.805-2.081-.755-.151-2.181-2.853.57-2.886h0l-.419-.973h0l-1.443-1.275h0l-.52-.822h0l-6.477-6.712-2.349-.789-2.148-2.047h0l-.57.168h0l-2.232-2.332-4.262,1.426h0l-1.242-1.51-2.97-.738-1.326-6.343.923-2.634-.285-1.242,1.762-1.024,1.074-4.514,2.953,1.091-.369,1.913.671.722,4.111-1.393.05-.822-.772-.218.084-2.265-1.259-1.493.654-3.608-1.275-2.1.084-1.208,3.121.05,1.242-2.131h0l.4-.235h0l.621-.034.721-1.41,2.316-.134-.151-1.426,1.678-2.3-1.527-.738.2-1.04-2.3-2.165,1.544-2.3.067-1.611-1.678-3.121-.084-3.859h0Z" transform="translate(3472.196 1750.422)" fill="#E0D3AD" stroke="#BAA147" stroke-width="1"></path></a><a title="Asturias"><path id="ES-AS" title="Asturias" d="M360.083,5.659l.554,1.057,2.265.738-.386.889.99.6.5,1.477,3.591.722-.7.621-.369-.4.218,1.057.57-.453-.537.889,1.074.134.386-.554.789.487,1.292-.99,1.158.638,3.44-.3,1.024.52,4.01-.671.856,1.561.738-.571,3.541.268,3.624,3.859,4.195-.654,5.034,1.644,3.994-.252,2.366,1.208,1.611-.2.168.789,1.007-.369,5.336,1.98,3.49.772,4.866.084h0l.05.822-1.258,1.51.99,2.735-.235,2.131-1.191.6-.2-1.107-2.416-.839-1.191,2.014-4.4.654.453,1.41-.805,2.92-1.846-.319-1.493.638h0L407,35.292h0l-1.024.134h0l-1.393-2.752-1.93-.654-2.416,1.628-1.46,2.332-1.124-.688-2.45.218-1.208,4.9-1.745-.067-.352-.7-2.7,1.326h0l-.134.3h0l-5.269.6-.873-.973-1.141-.034-.7.52-.319,2.3-4.044-.336-.638,2.1-6.46-.822-2.534-1.443-1.711.956-1.8,3.457.134,1.007-1.946.419-1.661.05-.906-1.091-1.275.034.134-.839-1.208.067-1.98-1.695-.789-2.836-2.114.621-2.752-1.258-.789,2.735-1.812.738L344.8,43.833l-1.728.034-.587,2.3-1.695-.436-.923-1.191-.5.571-1.426-.3-.185-.873-1.242-.839-.654,1.107-1.074.2.185,1.091-.839.185-.554,1.846-.638-.268-.4.7-1.175-.621h0l-.3.017h0l.218,1.561,1.745.218L333,50.578l-1.93.4-.587.856-.99-.5-1.477.923-3.121-.738-3.49.168-1.594.336L318.1,54.2l-.6-.067.084-1.007-2.332-.973h0l-.772-.772.235-1.946-1.577-1.9-1.712-.05L309.29,44.6l-.084,2.483-.688.034-1.141-1.561.721-1.292.738.4-.05-1.644,1.242-1.577,1.124.755.906-1.057h1.04l1.879-1.946.319-1.292-1.527-1.779-1.326.319.084.587-2.467,1.544-.839-.134-1.074-1.913.7-1.41-.252-.973-1.376-.268-.419-.956-.5.554L304.441,31.6,304,30.107l.453-2.248-1.812.1-1.376-1.695.1-2.567-.4-.856-.99.554-.822-.5.2-1.141h0l-.067-.218h0l.017-1.577,3.171.168.638-1.762,1.561-1.091h0l1.04-1.594-.47-.621.52-1.359,1.175.1-1.141-.923.1-.94,2.467.218,1.007-.923.268.352.084-.772,2.5.336.587.722,1.124-.822,1.963,1.024,2.97-.738.973,1.124.638-.906,1.611.218,2.2-.772.369.638.688-.235.168.7,2.584-.05.4.638,2.769-.2.134-1.359,1.93,1.124,1.51-.453,1.879.571,4.514-1.695.537-1.057,1.057.973.537-.419.269.789.671-.4-.017.94,1.258-.285,2.064.889,4.413-2.081,1.074.973,1.745-.419.856-.94-.436-.235,1.477-.571V7.739l1.56-.034,1.007-.789.05-1.191.721-.067Z" transform="translate(3379.95 1731.832)" fill="#E0D3AD" stroke="#BAA147" stroke-width="1"></path></a><a title="Cantabria"><path id="ES-CB" title="Cantabria" d="M433.97,30.688l-1.007-3.39,1.829-.856.789.436-.906,1.762.05,1.762h0l-.755.285ZM420.177,11.039l.034.7,1.644-.453.52,1.04,1.007-.185.654,1.326,3.222.587.319,1.309-1.342.285,1.258,1.712.805-.52,2.047.5,1.946-.47-.084,1.208.99-.587,3.423.805,1.56,2.064,1.829.671h0l-.185,3.255-1.527.2-.839.923-.7-1.561-2.45,1.175-.722-.654-1.258.487-.419-.5-.336,1.41-2,.487-.7,1.493-2.332.638.369,1.191h0l.3.47h0l.772,4.7h0l-3.373.017-3.725-1.191-1.376.151-.386-1.141-1.745-.738-1.527,2.332h0l-.034.285h0l-.956,1.41-2.215.956-.554,1.258h-3l-1.191-.587.268,3.054-1.93-.017-1.208,1.644-1.611.856-1.661,4.245.755,1.393,1.963-.218-.117.956,2.987-3.457,1.678,1.661-1.628,1.829-2.03-.805.772,1.41-1.393-.017,1.175.5-.688.923h0l-.067.352h0l1.846.554.386-2.265,1.258.6.973,2.752-.268,2.148-1.879.772L406.1,55.27l-.805,2.265-.923-.352-2.148.94-.2-.638h-.772l-.268-3.859-.7.738.235.755-.772.386.218.7-.94.47.134.99-1.611.268-.805-1.829-2.282.117-1.527-1.275-.067-.7,1.124-1.024,1.024.319.47-1.51-1.024-.856-2.282,1.644-1.124-.755.117-3.322-.671-.369-.1-2.5-4.95-1.091-2.45-3.809-2.853-1.695-.688,1.376-1.946-.436-1.728,1.695L373.63,40.89l-1.477,1.175-2.03-.571-2.416.336-.235-2.148-1.057-.034-.017-1.191-3-1.678-.856-1.477.738-1.98-.772-1.024.57-.52h0l1.024-.134h0l.235.117h0l1.493-.638,1.846.319.805-2.92-.453-1.41,4.4-.654,1.191-2.014,2.416.839.2,1.107,1.191-.6.235-2.131-.99-2.735,1.258-1.51-.05-.822h0l1.879.285,2.383-.587,1.644.47,2.081-.923.738,1.007,1.947.067,4.8-.822,2.869-1.107,1.376-1.225,1.242.3.352-.738.57.722.638-.99,2.483.671-.6-.218,1.56-1.846,4.883-.52,1.208-1.007,1.242.2-.1.873,1.057.654-1.779.4-1.51,1.191-.017.671,1.091.386-.185,1.426.42-.906.2.453,1.057-.671-.587-.688.621-.067.235-.99,1.225-.117-1.124-.587,1.695.067.57-.923,1.544-.1,1.947-1.46,1.426.1,1.225-1.007ZM396.266,53.995l.067-.084h.034l.6.3h0l.185,1.309-.57.4-.453-1.376h0l.134-.554Zm-2.6.2.252.268h0l-.05.285h0l-.5.2h0l-.319-.436h0l-.067-.168h0l.034-.151h0l.168-.067h0Z" transform="translate(3422.9 1735.48)" fill="#E0D3AD" stroke="#BAA147" stroke-width="1"></path></a><a title="Castila y Leon"><path id="ES-CL" title="Castila y Leon" d="M490.829,60.456l.554.688-.856-.336h0l.3-.352Zm-2.366.235-.319.168h0l.05-.285h0l.118-.185h0l-.034-.218h0l-.017-.067h0l.453-.05h0l-.034.336h0Zm7.484-11.108.134-.084h0l4.195-.487,4.01,1.762,1.846-.319.638,1.225,1.393-.755-.7,2.4-.671.789-.5-.235-.4,1.158,1.46,1.745,2.483-.956.252,2.332-1.409.453-.285-.654-3.708.117-1.057-1.527-2.064-.1-.638.738-2.248-.252-.805-1.98-1.8-.638L494.017,52.4l1.376-2.584h0l.268-.789h0l.168.285h0l.117.268Zm-61.515-2.366.352.034h0l.151.067h0l.1.185h0l-.05.285h0l-.5.2h0l-.319-.436h0l-.067-.168h0l.034-.151h0l.168-.067h0l.134.05Zm3.389-.1.285.134h0l.185,1.309-.57.4-.453-1.376h0l.2-.638h.034ZM313.45,41.444l2.332.973-.084,1.007.6.067,1.711-2.181,1.594-.336,3.49-.168,3.121.738,1.477-.923.99.5.587-.856,1.93-.4.017-1.443-1.745-.218-.218-1.561h0l.3-.017h0l1.175.621.4-.7.638.268.554-1.846.839-.185-.185-1.091,1.074-.2.654-1.107,1.242.839.185.873,1.426.3.5-.571.923,1.191,1.695.436.587-2.3L343,33.122l1.812,1.712,1.812-.738.789-2.735,2.752,1.258L352.278,32l.789,2.836,1.98,1.695,1.208-.067-.134.839,1.275-.034.906,1.091,1.661-.05,1.947-.419-.134-1.007,1.8-3.457,1.712-.956,2.534,1.443,6.46.822.638-2.1,4.044.336.319-2.3.7-.52,1.141.034.872.973,5.269-.6h0l.134-.3h0l2.7-1.326.352.7,1.745.067,1.208-4.9,2.45-.218,1.124.688,1.46-2.332,2.416-1.628,1.93.654,1.393,2.752h0l-.571.52.772,1.024-.738,1.98.856,1.477,3,1.678.017,1.191,1.057.034.235,2.148,2.416-.336,2.03.571,1.477-1.175,2.148,1.024,1.728-1.695,1.947.436.688-1.376L424.1,33.91l2.45,3.809,4.95,1.091.1,2.5.671.369L432.15,45l1.124.755,2.282-1.644,1.024.856-.47,1.51-1.024-.319-1.124,1.024.067.7,1.527,1.275,2.282-.117.806,1.829,1.611-.268-.134-.99.94-.47-.218-.7.772-.386-.235-.755.7-.738.268,3.859h.772l.2.638,2.148-.94.923.352.805-2.265,1.376,1.107,1.879-.772.285-2.165-.973-2.752-1.258-.6-.386,2.265-1.846-.554h0l.067-.352h0l.688-.923-1.175-.5,1.393.017-.772-1.41,2.03.805,1.628-1.829-1.678-1.661-2.987,3.457.117-.956-1.963.218-.755-1.393,1.661-4.245,1.611-.856,1.107-1.644,1.93.017-.268-3.054,1.191.587h3l.554-1.258,2.215-.956.956-1.41h0l.034-.285h0l1.527-2.332,1.745.738.386,1.141,1.376-.151,3.725,1.191L469,27.668h0l7.484-4.01,1.426,1.644,2.483-.369,1.091.7L479.7,28.692l1.309.889.487-.336.336.772L480.8,31.46l.755.436-.034,2.349-1.594.487,1.426.923,3.809.252,1.124,1.342-.218.671,2.819,1.98-1.8,1.863-3.306.554L481.2,41.159l.1-1.007-3.608-.956-2.769,4.212,3.222,3.44.436-.084-.7-.688,1.376-1.879,1.561.772,1.762-2.181.47,1.292-2.282,4.195,1.544.956-1.057,1.963,4.48-.487.3,1.611,1.158-.084h0v.218h0l1.661,2.064,2.282-.235,1.275.873.235,1.46h0l-.118.117h0l.487,1.175,1.409.638h0l-1.141,1.074-.621-.419-.638.5-1.561-1.208-1.678.218-1.024-.587-.621.772-2.987-.537,1.057,3.2h0l-.688.168h0l-1.309,2-1.342.722.436.554,1.594-.319.738.587-.185,1.594-.873.94,2.232,2.584-.755,1.326.3,3.339L484.2,73.46l.185-1.208-1.024-.034-.185,1.879.94.017.973,1.527-2.114.554.369,1.426h0l.269.2h0l-.52.755.789,4.145-.654,2-1.141.973,4.363,6.8,4.4-.134.99,2.987h0v.487h0l1.46,1.409,1.393-1.309,2.014-.4.7-3.977h0l.117-.419h0l.805-.94,1.007.386.738-.436,1.292,1.309-.117,1.225L499.1,95.811l.5,1.426,1.9-.369,1.376,1.107,2.232-.587,1.98.654,1.493-3.457,1.493-1.074.084-2.735,1.275.436,1.275-.52.772-1.275,5.487-.5,1.762.839.638,2.6,1.51-.856,4.9.268-.05,1.158-1.46.839,2.416,3.742-.6.52.386,2.081,4.48,1.091h0l.268.268h0l1.242,1.208.839-.05,4.883-2.92h0l.067,3.843,1.695,3.121-.084,1.628-1.527,2.282,2.282,2.165-.2,1.04,1.527.738-1.678,2.3.151,1.426-2.3.134-.722,1.426-.621.034h0l-.386.235h0l-1.242,2.131-3.138-.05-.084,1.208,1.259,2.1-.638,3.608,1.258,1.51-.084,2.265.772.218-.05.839-4.111,1.376-.671-.722.369-1.913-2.97-1.091-1.074,4.514-1.762,1.04.3,1.225-.923,2.634,1.326,6.36,2.97.738,1.242,1.51h0l-.5,2.014.738,2.148-.419.554-3.49-3.02-1.947,2.047-2.383-.822-1.393,1.712-1.359-.2-1.41.839-1.527-1.745-2.819,1.695-.6-.889-1.711-.3-.638-2.249-1.225-.268-.369-1.712-.923-.772-1.711,1.359-.956-.638.7-1.728-1.93-.386,1.292-.822.168-1.527-1.812.52-.755-1.426-2.853-.688-.4-1.326-2,.05-.738,1.141-1.879-.185-2.148-1.024-.185-2.618-1.728-.638-1.527.789-.487,1.292-3.1.218-1.963.906-5.722-1.8-2.131.654-.973,2.2-.822-1.057-.822,1.091-1.493-.2-.554.554-2.651-.285-.889-.906.7,1.695-.2,1.93-1.829-.1-.99,1.879-1.846.805h0l-.42.386h0l-.1.084h0l-.52-.168h-.52l-2.282.3-1.93,1.376-2.064,3.171-2.869,1.762-1.846,3.155-5.135,2.064-1.326,2.316-.738.151-1.879,8.39-2.249.352-1.93-.7-1.225,2.668-2.92,3.591h0l-1.057-.52h0l-.688.185h0l-2.416.386-1.007.772h0l-.7-.252-1.309.856-.084,1.007h0l-.638.638,1.98.537h0l.554,1.477-.5,2.3-1.46.839-.268.906.537,4.145-1.141,1.728.856,1.561-4.564.252-.94,1.225.168,2.2-1.007.554.285,1.275-2.114.369-1.141-1.728-.906.151.805,2.92-1.812,2.064.4,2.064-.873.453h0l-2.9,1.124-1.762-.6-.3-2.5-.722-.654.268-1.275-1.862.52h0l-.94.654h0l-2.03-.839-.621,1.292.453,1.191-3,2.1h0l-.134.3h0l-2.148,1.477-.252,2.064-3.155,1.41h0l-.436.117h0l-.52-2.92-2.248.487-.956,1.561-.487-.185-1.879,2.1-1.342.352-1.426.2-.453-1.41-2.3-.2h0l-.3-.067h0l-1.745.185h0l-1.007-.3h0l-.319-.134h0l-1.477-2.853-.084-3.2,1.225-2.752-3.876.6-1.963,2.567-1.175.571h-2.416l-.369-.117h0l-.554-.352h0l-.688-.352h0l-1.326-.285-.336-1.678-1.309-.252-.352-1.191-1.51-1.292-2.131-.117-1.225.805-1.242-.352-.487-.638.822-1.51-1.158-2.232-3.843,2.366-1.158,2.45-2.618-.839h0l-.47-.319h0l-1.242-.889h0l-.218-.3h0l.1-1.242-3.994-.99,1.007-.487-.168-.805.587-.47-.52-.252.822-.3-.889-.621h0l-.218-.084h0l-1.712-.805.554-1.191-1.309.352-.6-1.326-3.322-1.745-5.37,3.121h0l-.638.654h0l-.3,1.191-2.232.235-1.04,1.644-1.107-.067-3.725,1.879-.772,1.292.268,1.745-1.376,1.225-3.507.352-1.242,1.275-1.191-1.611-1.762,1.762-1.292-.571h-.805l-.168.436-1.275-.3-1.46-1.242h0l.185-1.846,3.171-1.946.487-2.03-2.5-2.685-.52-2.366,2.332-3.759-.235-2.3-1.9-1.107,2.2-5.47-1.611-5.554.654-3.171-.453-2.232,1.158-.218v-.873l-.369-1.342-1.762-1.141-.5-2.92-2.853-3.138-.487-1.561.755-.554,2.5.688,2.349-.587,2.383-3.893-.621-1.9,3.2-2.987.352-1.644,1.93-2.282,2.232.185.436-.654.772.973,2.366-2.215.47.654.856-.218.638-.5-.419-.873,1.879-.554,1.443-2.886,1.728-.688-.721-.6.134-.94.99-.52.755.889,1.577-.5-.722-1.443,1.678-1.393-.42-1.007,5.219-7.534-.621-1.393-1.326-.554L337.5,118.7l-6.712-1.561-.638.99-1.913.671-2.265-1.779.067-2.332-.889-1.258,2.4-7.584-2.517-.906,1.141-2.92-1.9-2.081-1.46,1.577-3.591.453-2.366-.554-1.074-2.6-1.259-.352-1.376,2.869-5.2-.05-.654-1.409-1.091-.336h0l-.252-1.309,1.225-1.963-.621-1.695-1.544.151-1.091-1.46,1.342-.654.721-2.3,1.628-.453L308,87.2l1.98-1.057.688-1.51,1.913-.738,2.114,1.191.1-.94h0l-.235-.5h0l2.718-3.977.252-3.826-1.51-.47-.654-.923-1.8-.285-.973-1.091h0l.034-.134h0l1.107-1.275-.319-1.544.688-.873-.7-1.611-1.426.4-3.423-2.081-1.393.2-.671,1.477-2.869-.789h0l-.839-.067h0l-.923-.05.755-1.326-.285-1.477,1.41-1.9-.638-.772.067-2.03,1.93-.94-1.745-3.2,1.527-1.762,1.745-.117.587-1.8,1.124.822,3.121-2.886-.084-.889,1.242-1.326-1.326-3.121,1.678-.487-.3-1.527.789-.554Z" transform="translate(3381.78 1742.442)" fill="#E0D3AD" stroke="#BAA147" stroke-width="1"></path></a><a title="Castila-La Mancha"><path id="ES-CM" title="Castila-La Mancha" d="M399.037,130.691l1.007-.772,2.416-.386h0l.688-.185h0l1.057.52h0l-.638,1.309.6,2.6-3.121,1.175h0l-.755.067h0l-.755-.218-.369-1.326-.872.017h0l-1.98-.537.638-.638h0l2.836-.168Zm33.576-29.415h.52l.52.168h0l.1-.084h0l.42-.386h0l1.846-.805.99-1.879,1.829.1.2-1.93-.7-1.695.889.906,2.651.285.554-.554,1.493.2.822-1.091.822,1.057.973-2.2,2.131-.654,5.722,1.8,1.963-.906,3.1-.218.487-1.292,1.527-.789,1.728.638.185,2.618,2.148,1.024,1.879.185.738-1.141,2-.05.4,1.326,2.853.688.755,1.426,1.812-.52-.168,1.527-1.292.822,1.93.386-.7,1.728.957.638,1.711-1.359.923.772.369,1.712,1.225.268.638,2.249,1.712.3.6.889,2.819-1.695,1.527,1.745,1.409-.839,1.359.2,1.393-1.712,2.383.822,1.946-2.047,3.49,3.02.419-.554-.738-2.148.5-2.014h0l4.262-1.41,2.232,2.332h0l.57-.168h0l2.148,2.047,2.349.789,6.477,6.729h0l.52.805h0l1.46,1.275h0l.419.99h0l-.57,2.869,2.181,2.869.755.151.805,2.081-.117,2.114-.906,1.258,1.107,3.1-1.259,4.312.806,1.074-2.383,2.03-3.423-1.762-.889.94-.42,2.416.42,2.8-2.366,1.326-1.829,3.222-.386-.369-.386.537-.05.621,1.225.487,2.232,2.819h0l.285.168h0l1.107,1.275-1.023.084-.419.956.4,1.443,1.376-1.946,6.762,7.165,1.46-.755,1.594,1.074,1.611-.688-.5,3.188h0l-.017,1.158,2,1.443-.47.453,2.047,4.564,4.463.57h0l.084.168h0l1.208.386,3.775-.956h0l1.057,2.433h0l-2.886,1.258-.3.973.654,1.175h0l-.151.722h0l-.772,5.621-2.685,4.061.587,2.349-.738,1.141-1.611.487h0l-1.225-.587h0l-1.309-.487-1.56,1.326L527.5,196l-2.634,1.594.805.151.168,2.752-.587.268.4,1.057L525.2,203l-.688.252.386,1.359,1.057.151h0l-.336.4h1.007l-.3,1.091h1.023l-.436.537.638-.352h0l.117-.1h0l.319,1.024-.655.017.839.3-.084.805h0l-.2.1h0l1.124-.822h0l.1.268h0l.1.554.084-1.091,1.158.268-.487.52,1.124.084v.738l.789-.067,1.409,1.292.386-.487h0l.3.084h0l1.577.587h.268l.956.117h0l.268.134h0l1.527.587.537-.554,2.081,1.141-.873,5.621-3.356,6.074-.352,3.541,1.695,1.258,3.742,5.6,5.051-.319,1.477-.906,1.879.336.5,2,1.107.99-.537,2.181.587,1.863-.235,2.282-1.51.7,2.1,4.447-2.165,2.3-2.92.05h0l-4.094-3.2-.168-1.594-3.054-.94-2.3.721h0l-.554.268h0l-4.262,3.49-1.091-1.544-.856.3-2.869,2.836-.185,3.91-1.594,1.124-.453,1.577.789,3.037.084,6.242-5.068,3.792-3.624-.034-1.04-1.678h0l-.017-.235h0l.436-.889-.856-.839-.755.638-1.208-1.007-1.158.1-.05.772-1.124-.235.5.772-5.705,3.39-3.339.94-2.97-1.426-.839.621h0l-.6,1.107h0l-1.594,2.249-4.5,1.963-2.483,5.521-2.869,2.383-.453,2.366h0l-3.725-.336-4.178-2.215h-.587l-1.258-.738,4.883-5.923-.336-1.812.839-2.819-.269-1.208-2-.923.1-5.5-4.094-1.04.185-4.43-1.443-1.309h-.419l-3,1.04-4.329-2.131-.487,1.292-.336-.285-.185.722-1.779.856v.57l-.352-.436-1.057.57-.906,1.342-1.057-.956-2.785-.017-1.258,1.057-.386,2.483-2.92-4.01-3.238,2.232-6.376-1.074-2.03-1.242h0l-.252-.117h0l-2.2.7h0l-.185.52h0l.067,1.141-2.2,1.98-2.014.5-2.752-.638-.352-1.879-1.426-.52-.638.117-.268,2.517-1.225.638-5.235-1.779-.453.587-1.913-.654h0l-.839.268h0l-1.124.336-.319,1.326-1.124,1.057-2.7.336-9.85-.638-6.108-1.208-.621,1.158.419,1.9-.822.218-7.534-3.356-4.01-4.715-.805.3-.419-.722-.873-.185-.369.47-1.309-2.131-1.98-1.493-1.712-.285-.2-1.124-6.88-2.366-.856-4.111-3.155.134-2.634-.721-.352-1.309-1.661-.722h0l2.634-.722,2.5-7.165.889-1.309,3.02.235.738-3.138-3.322-1.51-.772.2-1.863-5.755,3.843,1.493,1.9-.722h0l.151-.084h0l.285-.923-.789-.554h0l-.47-.185h0l-.873-1.644,1.561-3.557h.319l1.124-2.03,3.171.336,4.128,1.628-2.685-2.618-.268-2.014-.839-.487-1.292-4.027,2.433-.487.1-2.131,1.611-3.49-.923-1.544-2.232,1.644h0l-.352.151h0l-1.359,1.326-2.6.5h0l-.117.117h0L371.82,208.4l-3.675-1.409-4.9-5.5-1.342-.3-3.289-4.044h0l-.772-.688h0l-1.359-1.611,2.1-2.618h0l-.017-.554h0l.973-3.708-1.577-2.332.654-.386-.352-2.416-1.812.2-2.131,2.668-2.467-.419-.185-4.044,1.225-2.047-1.879-1.762-3.708.839L349.2,172l-.168-6.863,1.527-.94h0l.319.134h0l1.007.3h0l1.745-.185h0l.3.067h0l2.3.2.453,1.41,1.426-.2,1.342-.352,1.879-2.1.487.185.957-1.561,2.248-.487.52,2.92h0l.436-.117h0l3.155-1.409.252-2.064,2.148-1.477h0l.134-.3h0l3-2.1-.453-1.191.621-1.292,2.03.839h0l.94-.654h0l1.863-.52-.269,1.275.722.654.3,2.5,1.762.6,2.9-1.124h0l2.232,1.007.722-1.007,3.557-1.242.117-1.275,2.349-1.762.235-1.762,1.007.621.3,4.195.755-.05.52.772.621-.487.436.839,1.141-.856,1.04-2.349,2.634-1.342,2.2,1.846-.067,1.091,1.946.218,1.376-1.393,2.215.99-.084.805,1.561,1.56,1.745-.218.185,1.41.856-.856.738.755h1.779l1.812,1.762,1.292-.956,1.644,2.282,1.275.369,1.023-.856,1.477.889.973-.621.218.772,2.5,1.292-.654,3.188-2.936,2.416-.738-.252-.6,1.879-1.024.487.235.5h0l.369.117h0l-.185.4-1.057-.47.252.839-.554.436.084-1.107-1.158,1.124-1.074-.487-1.107,1.477-.336-.688-.872.168-.906.7.336.47h0l-.034.235h0l.352.789,2.785,1.057,1.913-1.93h0l.3-.185h0l.587-1.175,1.594-.856.571.369,3.222-1.158-.52-1.242h0l.688-.168h0l1.292-1.342,3.121-.453.654-1.644,1.661.453.973-.5.084.7,1.007-.554,1.309.654.99-1.175-.084-1.191,2.014-.369,1.376,1.678,1.259.319.419-.554,2.853-.168.638-1.326h.117l.856-.537.285,1.561,1.812.185,1.611-.6,1.477-2.014-1.93-2.114.3-1.275.923.352-.789-1.879.336-2.265-.94-2.92-.6-.654-1.745,1.292-1.007,1.762-1.04-.789.671-3.809,1.812-2.3-.52-1.057,1.007-2.2-1.124-2.047-1.963-.168-.118-4.312-1.443-1.51-1.51.151h0l-.268.117h0l-1.141-.067.571-2.047-2.131-1.527.419-.973-.738-.789.621-.336h0l.067-.671h0l.269-.6-1.074.923-1.108-.554-.319-1.913-.956-.822-.537,1.309-.806-.688-.839.369h0l-.05-.185h0l-1.074-.688,1.477-2.383-.738-.487.168-1.561h0v-.185h0L436,124.08l-2.131-.252,1.947-3.272-.268-1.342,1.46-.94-.873-1.544.789-.017,1.242-4.849.906-.822-1.98-2.467.6-2.366-2.9-.7-.957-2.5-1.359-.805.134-.923Z" transform="translate(3412.595 1789.901)" fill="#E0D3AD" stroke="#BAA147" stroke-width="1"></path></a><a title="Cataluña"><path id="ES-CT" title="Cataluña" d="M582.953,60.592l-2.551-.4,1.477-2.181.235,1.728Zm51.162,19.414.688,1.258,1.695.252-.336.369,1.963,2.248-.688,1.443.017,2.383L637,87.893l1.057,2.081.956.252.134,1.191-.7.487-.369,2.483-1.191.839-.235,1.208-1.175.352-.889,1.258-1.359-.2-2.651,4.061-3.088,1.326-1.913,2.551-5.4,1.678-1.191.906-.638,1.561-11.125,4.782-6.779,4.48-4.967,2.1-3.423,4.5-1.275,3.121.638-2.685-.923,2.03-.738.084-.067.47.772-.235-1.208,2.131-1.41,1.124-4.245,1.342-3.994.2-2.836,1.51-2.4.034-3.306,1.057-.638.789.285-.6-10.236,2.232-5.235,2.836-4.43.3-2.433,1.544-.419.134.369-.621-1.628.6-1.678,2.7-2.047-1.208-3.49.621-2.953,1.426-5.722,5.672-3.171,4.849-1.829,1.208-.47,1.393-1.862,1.141,1.393,2.131,2.349.084-1.812-1.359,1.275-.067,2.853,3.524,3,.755-2.3,2.45-4.077,2.148-3.759,4.816-2.265.352-1.191-1.426.755.42-.067-.956,1.812,1.208.554-.386-.856-.571,2.953-.453,1.443-2.6-2.349-.336-1.409.906-2.819.268.151.688-.537-.352-2.483,2.92-1.124,2.685h0l-3.457-1.477.218-1.829-1.879-1.46-2.853-.352-2.668-1.242-.688-.94.923-2.735h0l-.336-.134h0l-.134-.151h0l-.453-.453h0l-1.057.134h-.252l-.52-1.9-1.292.5-1.258-.587h0l-.419-.973.654.52.084-.805,2.383-.722.252-1.175,2-2.03-1.745-3.742.654-1.812h0l-.05-.336h0l1.829-3.054-.554-.369h0l.067-.453h0l-1.007-2.03.839-.319-1.493-1.208-.638.336.017-.755-.621.319.554-.789-.5-1.611-.856-.168v-2.4l.57-.671,1.51.436.285-1.175,1.879-.453,1.208-3.977,1.913-.1.1-.789.654.084.352-2.534-.99-1.577.185-.873-.956-.722,1.175-1.51-2.433-2.517,1.594-3.373-.57-2.014,2.517-.369,2.282-3.155-.889-3.608-1.208.554-2.383-.4.352-1.946-1.46-1.762.067-1.141,2.651-3.708.5.5.151-1.561,3.138-.419.7-2.148,1.393-1.292,1.376.05.554-1.93,1.107.05.033-.7,1.208-.52-.654-.873.151-1.913.52-.117-2.03-1.107,1.124-1.762.822.336.587-1.661.906-.3.218.654.554-1.04V86.047l.638-.4,1.46-4.346-.4-2.047.956-.805-.772-.537.2-1.007,2.819-8.205-1.074-.923,1.359-.923-2.148-.873,1.04-1.158-2.483-6.209.487-.537.571.436L525.28,57.4l-.889-.47.067-.889.6-.755.722.319-.436-.638,1.175-4.111-2.819-.7-.453-2.248-1.024-1.376h0l-.352-.235h0l-.185-.419h.654l.285-1.074-.856-2.534-.956-.336,1.124-1.258-.99-.47,1.158-1.359-.537-2.064,2.282-1.443,3.088,1.544,1.191-.218,2.416.789,3.2,2.316,1.56-1.024,1.074,1.191,2.836.352,1.51-.47,2.265,2.1.218,1.628,1.628,1.225,2.8-1.191,1.04.789,4.7-.268-.252.99,1.661.856.034,1.258,1.158.873.268,1.829,1.107,1.359-.738,1.292.789.956-1.359,1.846,1.644-.218.822,1.812-2.215,1.678.99.52.336,2.332,4.665.319.537-1.51.805.5.873-1.124,2.685.017.638-2.282,1.493.839.973-.7,1.779.906,1.779-.252,1.628.554,1.913,2.03,2.45-.235.2,1.41.822.487.319,2.467,2.416,2.1,3.155-.873.352-.94,1.074-.4.386-1.594,1.393-.839,2.1.487,2.534-1.376,1.678.956,1.057-.218L598.96,63.5l3.675.722.067,1.091,2.164,2.181,2.7.419.587-1.242,1.04-.285,4.346,1.091.117-1.141-1.007-1.762.822.034.117-1.024,2-1.024,1.779-.319,1.04.839,2.232-1.678.571-1.208.906.285.571-.805,2.081.671,1.342-1.594.906,1.024,3.322-.487,2.114,2.953,1.561-.738,2.483.168-.738.419.453.688-.805,1.477.621.2-.52.554.352,1.225,1.091.537.336.99,1.544-.956,1.057,1.292.755-.621.889.906,1.644.352-1.611.973.57,1.158-1.023-.117.487,1.275-.4.755-1.158.017.436.94-1.611-.822-.436,1.191-1.745-.873-.487-1.158L634.7,73.093l-1.04,2.618.453,4.3Z" transform="translate(3515.33 1751.954)" fill="#E0D3AD" stroke="#BAA147" stroke-width="1"></path></a><a title="Extremadura"><path id="ES-EX" title="Extremadura" d="M320.049,134.583l1.46,1.259,1.275.285.168-.42h0l.822-.017h0l1.292.57,1.762-1.762,1.191,1.611,1.225-1.292,3.524-.352,1.376-1.225-.268-1.745.789-1.292,3.708-1.879,1.124.067,1.04-1.644,2.232-.235.3-1.191h0l.638-.654h0l5.353-3.138,3.322,1.745.6,1.342,1.309-.352-.554,1.191,1.712.805h0l.2.084h0l.906.621-.839.3.537.268-.6.47.185.805-1.007.47,3.994,1.007-.1,1.242h0l.2.3h0l1.242.889h0l.47.319h0l2.618.839,1.158-2.433,3.859-2.366,1.158,2.232-.822,1.51.487.638,1.225.352,1.225-.805,2.131.117,1.51,1.292.352,1.191,1.309.252.336,1.678,1.326.285h0l.688.352h0l.554.352h0l.352.117h0l2.433-.017,1.175-.571,1.963-2.567,3.876-.6-1.225,2.752.084,3.2,1.477,2.853h0l-1.527.94.185,6.863-1.9,6.242,3.708-.839,1.9,1.745-1.225,2.064.184,4.044,2.467.42,2.131-2.668,1.8-.2.352,2.4-.654.386,1.577,2.332-.973,3.708h0l.017.571h0l-2.1,2.618,1.359,1.611h0l.772.688h0l3.289,4.044,1.326.3,4.9,5.5,3.692,1.409,1.628-1.091h0l.1-.117h0l2.618-.5,1.342-1.326h0l.369-.151h0l2.215-1.644.94,1.544-1.611,3.49-.1,2.131-2.433.5,1.292,4.01.839.487.268,2.03,2.685,2.618-4.128-1.628-3.171-.336-1.141,2.014h-.3l-1.561,3.557.873,1.661h0l.47.185h0l.789.554-.285.923h0l-.151.084h0l-1.9.722-3.843-1.493,1.846,5.739.772-.2,3.322,1.51-.738,3.138-3.02-.218-.873,1.292-2.5,7.165-2.634.722h0l-2.349,1.292-3.943-.6.789,2.248h0l-.067.134h0l-.789.1.017.889-.554-.453-.185.587-.369-.638-.252,1.057-.4-.436-1.477,1.863-1.628.822-.873,1.074.151.856-2.853-.3-1.024,1.728.369.839-.789-.436-.654,1.124h0l.185.436h0l-3.1,2.1-.218,1.208h-1.611l-1.208.772-1.695,2.769-.05.94L379.8,246.4l-.738,2.148,2.181,3.809-.067,3.356h0l-.168.1h0l-.587,1.091.252,1.292-1.728.738-.319,1.074-2.366-.386-3.255,3.255-1.292-.386-.319-2.332,2.081-1.326-.453-.906.52-.268.436.6-.067-1.225-1.9-.889-1.326.94-1.158-.285-.822.638-2.366.168-1.191.94-.134,1.326-2.081,1.561-.134.973.956,1.208-1.191,1.225-.822,2.987-4.463-.151-2.987.772-2.987,2.534-.94-1.242-1.728.168-.6-.688-2.349-.419-1.04-1.057h0l-.235-.084h0l-1.225-1.057-.47-1.93-2.081-.537-1.712.168.4.52-1.225.99.268,1.007-.537.352-3.255-1.258h-.537l-1.107.336-.2-2.249h0l-.722-.873h0l-1.158-1.225-.94.453-3.255-.571-1.225.5-1.04-.453-.05-.721-1.762.017.722-3.826-2.3.067-3.893-1.745h0l-.252-.805-.94.1-.722.789-.4-.42-1.46.4-.772,1.175-1.728-.168-.755.856-2.45-3.356-.722-2.752-.772-.218-4.614-6.494-.336-1.611-1.661-1.141-.839.218,1.712-2.2-1.191-.185.872-3.742,2.718-4.665-1.275-.856.554-4.967,2.282-1.292,3.675-3.943,1.527-.2L311,218.03l1.292-.6.285-.906-.822-1.661,4.38-6.846-.42-1.712-1.225-2.316-2.03-1.342-3.406,1.024-1.393-.52-.42-.789.587-2.853-3.725-1.342L302.934,197l-.369-2.282.738-1.594-3.406-3.339-.738-2.651,1.074-2.03.218-2.718-2.4-1.628-.755.369-.738-.537-.436-2.332-1.779-.268-1.695-2.517-1.443-.688-1.258-3.943-.671-.47,3.843.134,5.521,1.258,3.843-1.544,4.715.805,1.04-.6,2.668.319,2.349-.772,1.829-6.007-.419-2.349,1.477-.688,2-2.332.134-3.591.755-.654.218-2.651.956-1.9-3.473-5.755-2.752-.554-1.393-4.061.856-2.383,2.081-.654.587-1.191,1.93.2Z" transform="translate(3373.251 1810.39)" fill="#E0D3AD" stroke="#BAA147" stroke-width="1"></path></a><a title="Galicia"><path id="ES-GA" title="Galicia" d="M259.32,99.13l.839.99-1.057-.285.218-.7Zm-.4-2.618.956,1.376-.755.973.4-.789Zm-.151-8.793L257.659,90.2l-.034-1.628.6-1.057.537.2Zm-4.262-5.5.654.856-.47.42Zm6.36-5.487.218.587.621-.168.2,1.242-.722.134.185,1.124-.453.067-.352-.554.487.117-.4-.537.487-1.04-1.04-.654ZM304.156,3.8l1.057-1.812.57.386,1.057-.688.419.638-.554,1.812.956,1.577-1.124-.738-.067,2.1-.621.2.873.772-1.527.067,1.141.654,1.342-.873-.738-1.544,1.493-.285.419.873.805-.285-1.04-.94.839-.4-.084-.587,4.061-1.544L315.1,1.538,315.012.6l1.208,1.057-1.745,2.416.906.369.386-1.04,1.661-.4.386,1.946.99.268-.336,2.416.571,1.393.285-1.661.856-.587L319.811,5.6l1.225.1.067-1.275,1.51-.4.453.839,2.1-.05-.4,1.007,5.5,2.316.889,2.483,1.913,2.064-.6.554.805-.252,2,1.175-.487.94-.638-.067.873.369-.419.369,1.074-1.175,3.373.99,2.316-.5,3.155.369.285,1.242-.738,1.074-.151,2.953h0l-1.561,1.091-.638,1.762-3.171-.168-.034,1.561h0l.084.218h0l-.2,1.141.822.5.973-.554.42.755-.1,2.567,1.376,1.695,1.812-.1-.453,2.248.436,1.493,1.863,1.879.5-.554.42.956,1.376.268.252.973-.7,1.41,1.074,1.913.839.134,2.467-1.544-.084-.587L353,39.461l1.527,1.779-.319,1.292-1.879,1.946h-1.04l-.906,1.057-1.124-.755-1.242,1.577.05,1.644-.738-.4-.722,1.292,1.141,1.561.688-.034.084-2.483,2.131,2.886,1.712.05,1.577,1.9-.235,1.946.772.772h0l-.772.52.3,1.527-1.678.487,1.326,3.121-1.242,1.326.084.889-3.121,2.886-1.124-.822-.587,1.8-1.745.117-1.527,1.762,1.745,3.2-1.93.94-.067,2.03.638.772-1.409,1.9.285,1.477-.755,1.326.923.05h0l.839.067h0l2.869.789.671-1.477,1.393-.2,3.423,2.081,1.426-.4.7,1.611-.688.873.319,1.544-1.107,1.275h0l-.034.134h0l.973,1.091,1.8.285.654.923,1.51.47-.252,3.826L355.6,97.653h0l.235.5h0l-.1.94L353.623,97.9l-1.913.738-.688,1.51-1.98,1.057-.386,2.651-1.628.453-.722,2.3-1.342.654,1.091,1.46,1.544-.151.621,1.695-1.225,1.963.252,1.309h0l-1.175,1.409-2.8.084-.873-1.51-1.409-.789-2.718.369-.487,2.349.587,1.426-.956,2.332-5.319,2.232-1.9.134-.453-.638-2.634,2.618-1.175-3.2-1.98-.57-1.577,1.863-3.876.654.5-2.316.772-.7-3.406-.235-1.93-1.477-1.678.906-.956-.369-1.426.94-2.064.235-1.98,1.745-.57-.654.268-3.692-.805-.3-.856,2.97-2.584.319-1.644,2.551-1.9.873-3.289.47-1.695-.587-.268-3.44-1.426.185-.688-2.3,2.467-4.329,1.51-1.46,1.879-.621.185-1.98-1.342-1.963-3.171.7-.688-5.286-1.175,1.275-1.057-.369-.5,1.04-2.769,1.158-.621,1.175-1.46-.352-.839.839-1.913.268-.872-.621-3.524.151-.235,1.007-.906.5-3.943.336L270.78,110.1l-.386,1.695-3.675,2.3-.487,1.8-2.953,1.41-2.265,2.853-.47-.822-.369-5.906.571-1.678-1.124-6.8.973.034,1.309-1.074.755.973.47-.235.235-1.46-1.41-1.007,1.259-.017.336-1.9,1.695-1.091.722-1.644,1.007-.05-.6.134.554.3,3.675-3.591,2.249-.151-.688-1.342.722-2.1-.973-.6L271.72,91.8l-1.091.7.067,1.46-2.416.94-.252-.805-.621.117-.285.94-1.259.822-.822-.319-.436,1.024-.956-.789-.789.487-1.141-.6-.352.906-.436-.2.789-3.624,1.141,1.9.654-.017-.134-2.1-.839-1.544h1.611l.722.671,1.46-.738,1.342-2.752,3.339-2.6-1.376.419-.4-1.158-3.792,3.2-1.829-.805-1.107,1.024-1.93-1.9.4-1.258-.621-1.342-1.208-.319-.654.7-.789-.789.285-1.007,2.2-.084-.1-.772.923-.47.721,1.779-.755.671.134.856,1.259-.906,1.107.822-.654-2.03,1.057-.722-.571-.789.4-1.393-.722.621-.47-1.93.923-.537-.688-.151.168-.839,1.577-.252,1.342-1.342-.571-.822,1.057-2.03-.654-.352L264.1,72.8l-.805-.571.419-1.225-1.275-1.326.017,1.611-.52-.268-.47,1.175,1.057.873-.94.386.05,1.225-1.393-.252.621-1.359-1.208-.386-1.695,1.93.805,1.309-1.443.117-.487.923-1.175.252-.05,1.879L253.145,80.2l.436-2.5-1.007-1.141-.822.6-.772-.621,2.265-3.624.839-4.665h.638l1.091-1.913,1.426-.319,1.493-2.467.688-.285,1.107,1.208-.638-1.191.168-1.426,1.56-.856-.7-.05-.436.772-.805-1.141L259.5,62.6l-.755.319-.3-.587-1.359,1.712-.856-.889-.05.923-1.544-.185-.168-1.309-1.024.956-1.024-.067.688,1.191-1.879,1.9-.487-.973-.822.05-.805-2.349-.738-.4,1.963-1.544-.168-1.208-.956-.151-.906-1.8.99-2.165-1.51-.268-1.561-2.836.5,2.567L245.51,55.4l-.537-1.51-.621.034-.034.889-1.426.6-.168,2.265-.554-.6.2-1.208-1.057-.722.2-1.124,1.342-2.064V50.082l.621.3.3-.537-1.326-.369-.99-2.853,1.057.671.805-.386.05-2.534,1.628.268.084-1.695,1.644,1.561,1.007-2.03,1.745-.671-1.846.386-.034-1.544-.839,1.779-.94-.319-.47-2.047.688.436.856-.722.269-1.628.839.571.319-.822.688.319.235-.453,2.249,1.04,1.779-.738,1.342-2.483.7,1.024.755-.772,1.611.1-.1.789.856-.419.52-1.258h.738l-.755-.151-1.208,1.477.3-.805-.671-1.846-1.108.067-.688-.856,1.56-1.191,1.309.755.134-.738.806.05-.134-1.8,1.644.587.168-.638,1.158.2.268-1.611,2.483,2.567,3.591.822,4.531-1.98,2.332.722,1.024-.3,1.091-.755.671-1.963.839.386.957-.47.923-1.443,1.275.839.336-1.258.805,1.376-.906.319.872.554.117,1.426-.134-.671,1.594-.319.52-1.963-.772-.168.235-.973,1.963-.587.554,1.309,1.426.151.738,1.107-.185.889,1.93,1.493-.151-.889.537.285L290.8,28l.487-.638-.52-1.846.688-1.04,1.477-.1.05-.52L291.89,23.5l-.94.587-.638-.688-1.326.671-.956-1.107-1.695-.554.6-.117-.369-.537L288.4,21.2l.218.52.554-.7,1.191.654,1.242-.235.923-.789-.151-.688.6.352.386-1.175-3.188,1.577.05-.6-.772.185.084-.973-.956,1.644-1.326.419-.923-.621-1.007.738-.386-.4,1.326-2.047-.4-1.393,1.46-.99L286,15.029l.587-.52.822.839,1.561-.084,3.138-2.769.2-1.258,1.561.235-.05,1.225.654-2.332,1.376-.352.822-1.644.3,1.829.7-.386.839.671-.956-1.007h.856l-.05-.7-.94.017.621-2.819,1.342-.587,1.493.554,2.2-1.493.067-.805,1.007.168Z" transform="translate(3340.735 1728.401)" fill="#E0D3AD" stroke="#BAA147" stroke-width="1"></path></a><a title="La Rioja"><path id="ES-RI" title="La Rioja" d="M467.458,84.956l-4.883,2.92-.839.05-1.242-1.208h0l-.269-.268h0l-4.48-1.091-.386-2.081.6-.52-2.416-3.742,1.46-.839.05-1.158-4.9-.268-1.51.856-.638-2.6-1.762-.839-5.487.5-.772,1.275-1.275.52-1.275-.436-.084,2.735-1.493,1.074-1.493,3.457-1.98-.654-2.232.587-1.376-1.107-1.9.369-.5-1.426,2.148-3.138.117-1.225-1.292-1.309-.738.436-1.007-.386-.805.94h0l-.117.419h0L424,80.711l-2.014.4-1.393,1.309-1.46-1.41h0v-.487h0l-.99-2.987-4.4.134-4.363-6.8,1.141-.973.654-2-.789-4.145.52-.755h0l-.268-.2h0l-.369-1.426,2.114-.554-.973-1.527-.94-.017.185-1.879,1.024.034-.185,1.208,1.158,1.594-.3-3.339.755-1.326-2.232-2.584.873-.94.185-1.594-.738-.587-1.594.319-.436-.554,1.342-.722,1.309-2h0l.688-.168h0l-1.057-3.2,2.987.537.621-.772,1.024.587,1.678-.218,1.561,1.208.638-.5.621.419,1.141-1.074h0l.688.554.034,1.275,1.057-.2-.067,1.292-.94.587h0l.134.671h0l.872.889.185-.805.554.235,1.057-.94.688-2.6,1.107.017,2.634,1.661-.453,3.373h0l-.6,1.46h0l1.292-.554-.05,1.007,1.007.4.453,1.242,1.9-1.225.47,1.9,1.141-1.326,1.762.638-.3-.738,1.275-1.477-.218,1.812,1.712.252,1.292-.638,1.242.436h0l1.007,1.024,2.148.52.319.822.621-.151-.168-.7h0l.386-.185h0l1.342.688.034-.638.47.134h0l.319.6h0l.285.654,1.577.285-.1.638,1.258.419-.067.47,1.342-.134.7.654.772-.654,1.963-.1-.285,1.258,1.695,1.9-.4,1.342.889.2,2.316-1.577,1.024.369,1.175.638.218,1.107,1.04-.017.487.805.587-.352.185,1.661,2.081.738-.1,2.232.822.151.151-.571,1.376.654.268,1.225,4.43.973.671,1.258,1.007-.017-.923,1.191.889,1.309-.956.671-.755.436-1.863-1.091-1.141.772-1.879-.889-3.1,4.161-.621,1.628.319,1.728,2.064,1.644.4-.285h0l-.453,2.433ZM415.34,45.893l.084-.235h0l.117-.185h0l-.034-.218h0l-.017-.067h0l.453-.05h0l-.034.336h0l-.218.268h0l-.319.168h0Zm2.45-.067.285-.268h0l.554.688-.856-.336h0v-.084Z" transform="translate(3454.535 1757.358)" fill="#E0D3AD" stroke="#BAA147" stroke-width="1"></path></a><a title="Madrid"><path id="ES-MD" title="Madrid" d="M383.742,126.664l.755,1.443-2.836.168h0l.084-1.007,1.309-.856Zm33.576-29.415-.067.973,1.359.805.956,2.5,2.9.7-.6,2.366,1.98,2.467-.906.822-1.242,4.849-.789.017.873,1.544-1.46.94.268,1.342-1.946,3.272,2.131.252.806,1.091h0v.185h0l-.168,1.561.738.487-1.477,2.383,1.074.688h0l.05.185h0l.839-.369.805.688.537-1.309.956.822.319,1.913,1.107.554,1.074-.923-.268.6h0l-.067.671h0l-.621.336.738.789-.42.973,2.131,1.527L428.36,135l1.141.067h0l.268-.117h0l1.51-.151,1.443,1.51.117,4.312,1.963.168,1.124,2.047-1.007,2.2.52,1.057-1.812,2.3-.671,3.809,1.04.789L435,151.229l1.745-1.292.6.654.94,2.92-.336,2.265.789,1.879-.923-.352-.3,1.275,1.93,2.114-1.477,2.014-1.611.6-1.812-.185-.285-1.561-.856.537h-.117l-.638,1.326-2.853.168-.42.554-1.258-.319-1.376-1.678-2.014.369.084,1.191-.99,1.175-1.309-.654-1.007.554-.084-.7-.973.5-1.661-.453-.654,1.644-3.121.453-1.292,1.342h0l-.688.168h0l.52,1.242-3.222,1.158-.571-.369-1.594.856-.587,1.175h0l-.3.185h0l-1.913,1.93-2.785-1.057-.352-.789h0l.034-.235h0l-.336-.47.906-.7.873-.168.336.688,1.108-1.477,1.074.487,1.158-1.124-.084,1.107.554-.436-.252-.839,1.057.47.185-.4h0l-.369-.117h0l-.235-.5,1.024-.487.6-1.879.738.252,2.936-2.416.654-3.188-2.5-1.292-.218-.772-.973.621-1.477-.889-1.024.856-1.275-.369-1.644-2.282-1.292.956-1.812-1.762H400.2l-.738-.755-.856.856-.185-1.41-1.745.218-1.561-1.561.084-.805-2.215-.99-1.376,1.393-1.947-.218.067-1.091-2.2-1.846-2.634,1.342-1.04,2.349-1.141.856-.436-.839-.621.487-.52-.772-.755.05-.3-4.195-1.007-.621-.235,1.762-2.349,1.762-.117,1.275-3.557,1.242-.722,1.007-2.232-1.007h0l.873-.453-.4-2.064,1.812-2.064-.805-2.92.906-.151,1.141,1.728,2.165-.252-.285-1.275,1.007-.554-.168-2.2.94-1.225,4.564-.252-.856-1.561,1.141-1.728-.537-4.145.269-.906,1.46-.839.5-2.3-.554-1.477h0l.872-.017.369,1.326.755.218h0l.755-.067h0l3.121-1.175-.6-2.6.638-1.309h0l2.92-3.591,1.225-2.668,1.93.7,2.248-.352,1.879-8.39.738-.151,1.326-2.316,5.135-2.064,1.846-3.155,2.869-1.762,2.064-3.171,1.93-1.376,2.265-.386Z" transform="translate(3427.89 1793.928)" fill="#E0D3AD" stroke="#BAA147" stroke-width="1"></path></a><a title="Murcia"><path id="ES-MC" title="Murcia" d="M504.053,240.882l-.336,1.98.956,3.44-1.175-3.238.554-2.181Zm-.386-1.8-.1,1.007.872.772-.906-.688-.352-1.007Zm-72.892-14.364.453-2.366,2.869-2.383,2.483-5.521,4.5-1.963,1.594-2.248h0l.6-1.107h0l.839-.621,2.97,1.426,3.339-.94,5.705-3.39-.5-.772,1.124.235.05-.772,1.158-.1,1.208,1.007.755-.638.856.839-.436.889h0l.017.235h0l1.04,1.678,3.624.034,5.068-3.792-.084-6.242-.789-3.037.453-1.577,1.594-1.124.185-3.91,2.869-2.836.856-.3,1.091,1.544,4.262-3.49h0l.554-.268h0l2.3-.722,3.054.94.168,1.594,4.094,3.2h0l1.158,4.782-1.091,2.936.537,1.544-3.608,3.406.671.352-.319,4.916,4.866.554,1.007,2.551-1.007,4.782-2.248,3.692.285,2.6,5.353,10.185,3.306,3.507,2.181,1.107.956-.134h0l.638,3.272-1.644-1.628-.889,2.366-1.863,1.611-.738,1.644,2.786,3.692,2.853,1.527.99-1.326.7,1.175.671-.067-1.51,1.829-2.785.671-1.712,1.158-1.141-.571-1.46.386-1.93,1.409-1.963-.386-.2-.453.957-.134-1.342-.319-.436-.7.436-.537-.872-.185.235,1.141-.923-.235-.688.738-2.3-.638-1.661.906-.772.956.738,1.024-2.534-.4-.252-1.057-1.477-1.091-1.913-.151-.52,1.091-3.2-.285-3.39,3.188-2.685,1.175-1.242,3.675-1.493-.487-1.946,1.544-1.544.252-1.46,1.477h0l-4.967-3.893-3.44-.621.067,1.04-1.644-1.208L446.431,246.5h0l-.3-.319h0l-.5-2.752.789-1.544-.621-2.769.621-3.843.956-1.326-.336-.436h0l-.285.017h0l-.822-.352-.738.654-1.863-.856-1.007.587-1.8-1.577-2.2.688-3.675-2.853-2.1-3.742-1.779-1.359Z" transform="translate(3469.186 1851.72)" fill="#E0D3AD" stroke="#BAA147" stroke-width="1"></path></a><a title="Navarra"><path id="ES-NC" title="Navarra" d="M465.022,18.6l1.359.3-.3,1.493,1.024,1.946,1.46.134.906-1.812-.285-.587,2.232-.352,2.366,1.41,2.282-.084,1.359,1.292v3.91l-.889.722-.587,3.121-2.685,2.45,1.51,2.618,3.943,1.107.436-4.128,1.124-1.158,2.232-.319-1.779,3.054,2.114,1.594,2.232-.537,3.171,1.745.117,1.007,1.275-.99,1.527,1.477,3.155.5.7,1.091,2.416,1.326,1.728-.638.453.554,3.977.235,2.483-1.057,1.107,1.41-.3.671.587.94h0l-2.634-.117-1.577,1.191-.134,2.114-1.678,1.326-.185,2.953.554.755-.772,1.493-1.628.134-.017,1.074-1.024-.017-2.114,2.483-2.584.185-.638.587-.017,2.718-5.135-.067-.2,2.282-1.007-.034.94.772-1.98,1.326-.067,1.8h-.235l-.956.42-1.611-.889L481.7,67.613l.554,2.987L479.3,73.737l-.822,2.819,1.107.453.235,1.007-3.171,3.843.336,1.107-1.175,3.306,1.141,2.416-.319,3.339,1.477,1.225.654,2.047,1.41.034h0l.47-.05h0l.268,1.846-1.561,1.561-2,3.692.151.822-1.275,1.51-4.212-.252h0l-.537.5h0l-.873.268h0l-1.107-.218h0l-4.4-3.071-2.853.52-2.4-2.332-3.138.05-.47-.923h0l-.4.3L453.779,97.9l-.319-1.712.6-1.644,3.121-4.145,1.863.889,1.141-.772,1.863,1.091.755-.436.957-.671-.889-1.309L463.8,88H462.79l-.688-1.258-4.43-.973-.268-1.225-1.376-.654-.151.554-.822-.151.1-2.215-2.081-.738-.168-1.661-.587.352-.487-.789-1.024.017-.235-1.124L449.4,77.5l-1.007-.369L446.077,78.7l-.889-.2.419-1.342-1.712-1.9.285-1.258-1.963.1-.772.654-.7-.654-1.342.151.05-.47-1.242-.436.1-.638-1.594-.285-.285-.638h0l-.3-.6h0l-.487-.134-.034.638L434.264,71h0l-.4.185h0l.185.7-.621.151-.319-.805-2.148-.52-1.007-1.024h0l-.034-1.292,1.393-.436-.185-4.984-1.191-.487-1.342,2.349-.487-1.208-1.259.05-.4-1.812.772.2,1.409-2.081,1.644-.973,1.46.369.5.822-.419.554,4.061-1.091.151-.99-.2-.6-.789.336-.587-3.171.319-.973,2.5-.587-.822-2.383,2.165-3.356-.436-2.819h0l-.369-.537h0l.537.017.067-1.8,1.242-1.594,1.342.889,2.433-.3,1.057-.5.587-1.594,2.366-.419.5-1.091-.621-2.064.923-1.024h0l.117-.571h0l.252-1.024,2.97-1.527,2.047-2.366-.805-1.091.285-4.463,1.46,1.04.268-1.46.671,1.225.537-.722h0l.386-.084h0l2.148-1.309.084-1.913h0l.5-.571h0l.1-.117h0l.688.067h0l1.51-.839h0l1.712-.839Z" transform="translate(3466.25 1740.571)" fill="#E0D3AD" stroke="#BAA147" stroke-width="1"></path></a><a title="Islas Baleares"><path id="ES-IB" title="Islas Baleares" d="M537.808,214.531l.805,1.326.721-.168.268,1.493,1.728,1.443.621.285,1.779-1.107.738,1.342-.537,1.007-2.232-.084-1.695-1.443-1.8-.42-2.886,2.567-.218-4.564.738-.923.419.4.973-.52.3-2.047.268,1.409Zm-.772-2.886.47,1.292-.7-.587.235-.7Zm5.168-18.726,1.007,1.393,2.131.168-.285.453.537.218-.839.235-.151.738,1.51,2.064-1.661.722-.185,1.51-2.131.352-.151,1.611-.5.168.4.453-.839-.1-1.527,1.98-.906-.268-.017.822-.772-.755-.067.772-.805-.034L536.2,207l.134,2.618-.99-.621-.621.688-1.225-2.316-1.107.839-.084-.6-.906.268v-.789l-1.208-.218-1.091,1.359-1.091-.906-.5-1.829,1.04-2.165-.956-1.124.638-.94.721.487,2.8-.369-1.007-1.175.638-.973-.218-1.309,2.2-1.275.789-1.208.772.671.587-1.007,1.309.1.336-.839.721.654,2.131-1.712.487.688.453-.889,1.259-.185Zm64.753-2.735,1.024.352-.889.638.05,1.208-1.678-.034-.2-2.014.671,1.074-.1-.688.94.352.185-.889ZM578.516,165.3l-1.258.889,1.577-1.561Zm40.238-22-.453.923-2.165,1.225-1.074-.218-.94,1.661-.856-.722-.554.621.151,1.393.973,1.107,4.5-1.863-.671.52.352,1.208-.839,1.208-2.517.352-.034,1.8.873,1.561,1.275,1.175,3.859,1.644,3.44-1.812.873-1.745,3.927,2.634,1.208-.1-.285,1.46,1.191.436-1.057.587-.034,2.886-.654-.034-.218,1.292-1.326-.134-.638.889-.369,1.879.822.621-1.158.235-.487,1.426-1.644.755.369.235-2.416,2.853-.587,4.229-.57-.587.285.554-1.41,2.735h-.52l.336.336-2.081.688-.755,1.46-1.124-.2-3.406,3.591-1.024.2-1.678-2.6-1.258-.352.151-1.309-1.41-1.426-1.309-.1-.738.738-1.359-.805-2.181-.117-.3.654-1.007-.638-.889.252-2.114-2.6.235-2.064-1.141-2.03,1.208-2.047-3.591-3-1.628.084.419-.369-.487-.067-.419,1.091.755-.252-.352.5-1.191-.386-.722,1.225-2.332.42.352.738-.621.369-.487,2.8-1.477-.873-.654.386.134-1.477-1.04-.839,1.074-.7L584,168.336l-1.493.822.151-.839h-.772l-.822.99.017-.789-1.158.1,1.225-.856-.805.134-1.174-1.208.453-2.383,4.833-2.819,3.054-2.936,1.242.067,1.41-.973,1.527-2.349,1.98-.973.268-1.158.571-.386.537.5.285-1.175,3.457-1.712.134-.923,3.071-.319.4-.805,3.725-1.712.671-.99,1.493.688,2.735-1.712-.185.453,1.04-.168-.05.772,1.493-.923,1.208.218,2.081-1.644.688-.067-.3.571Zm43.644,6.527-6.024-3.96-3.457-1.326-2.735.94-3.457.034.453-4.7-1.611.185-.319-1.292,1.426-1.846,2.03-.386,1.426-.1,1.057.822.554-1.007,2.047.7,2.416-.856.973.805,1.611-.99-.336-1.208.789.185-.285,1.56.5.889,1.359-1.107-.285,2.2.621-.5-.168-1.9,1.628.369-.537,1.544.956.738.6-.6.47,2.316.084-1.175.57.956h2.282l-.654.235.52.638-.537,1.057.671.285-.2.772.688-.285.235,2.3,1.023.822.1,1.074.772.235-.772.369-.654-1.225-1.762-.3,1.779.873.5.956-.168,1.963-1.426,1.376-2.936-.94-1.829-1.493Z" transform="translate(3534.767 1819.963)" fill="#E0D3AD" stroke="#BAA147" stroke-width="1"></path></a><a title="Pais Vasco"><path id="ES-PV" title="Pais Vasco" d="M430.936,13.769l1.51-.621.537,1.678,2.165,1.46,2.064-.621,1.309,1.527.755-.185.789.789.99-.537.587,1.057,1.812-.2,2.2,2.551,4.833,2.316,3.289.218,2.5-1.007,1.007.436.151-.487.587,1.191,1.51.47,5.772-2.165,1.8.336-.084-.621,1.443-.789,2.081.1,3.088-2.685,2.651-1.007.386,2.064-1.158.7,2.232.47.956.839L478.96,23h0l-1.51.839h0l-.688-.067h0l-.1.1h0l-.5.571h0l-.084,1.93-2.148,1.309h0l-.386.084h0l-.537.7-.671-1.208-.268,1.443L470.6,27.68l-.285,4.463.805,1.091-2.047,2.349-2.97,1.527-.235,1.024h0l-.117.571h0l-.923,1.007.621,2.064-.487,1.091-2.383.419L462,44.862l-1.057.5-2.433.3-1.342-.889L455.9,46.373l-.067,1.8-.554-.017h0l.369.537h0l.436,2.819-2.165,3.356.822,2.383-2.5.587-.319.973.57,3.188.789-.352.218.6-.151.99-4.061,1.091.436-.554-.52-.822-1.443-.369-1.644.973-1.41,2.1-.772-.218.4,1.829,1.258-.05.487,1.208,1.342-2.349,1.191.47.185,5-1.393.436.034,1.275h0l-1.242-.436-1.292.638L443.2,73.2l.218-1.812-1.275,1.477.3.738-1.762-.638-1.141,1.326-.47-1.9-1.9,1.225-.453-1.242-1.007-.4.05-1.007-1.292.554h0l.6-1.46h0l.453-3.373L432.9,65.032l-1.108-.017-.688,2.6-1.057.94-.554-.235-.185.805-.873-.889h0l-.134-.671h0l.94-.587.067-1.292-1.057.2-.034-1.275-.688-.554h0l-1.409-.638-.487-1.175h0l.117-.117h0l-.235-1.46-1.275-.873-2.282.235L420.3,57.968h0v-.218h0l-1.158.084-.3-1.611-4.48.487,1.057-1.963-1.544-.956,2.282-4.195-.47-1.292-1.762,2.181-1.56-.772-1.376,1.879.7.688-.436.084-3.222-3.44,2.769-4.212,3.608.956-.1,1.007,2.584,1.158,3.306-.554,1.8-1.863-2.819-1.98.218-.671-1.124-1.342-3.809-.252-1.426-.923,1.594-.487.034-2.349-.755-.436,1.04-1.443-.336-.772-.487.336-1.309-.889,1.779-3.054-1.091-.7-2.483.369-1.426-1.644-7.484,4.01h0l-.772-4.7h0l-.3-.47h0l-.369-1.191L403,26.186l.7-1.493,2-.487.336-1.41.419.5,1.258-.487.722.654,2.45-1.175.7,1.561.839-.923,1.527-.2.185-3.255h0l1.175-.1.537.722.319-1.242h.537l2.316,1.527.654-.47-.5.453,1.074.839.285-1.426-1.04-1.594,1.477-.554,1.56-1.879,1.074.017-.017-1.46,6.276.352,1.074-.889ZM408.1,29.257l-1.007-3.39,1.829-.856.789.436L408.8,27.21l.05,1.762h0l-.755.285Zm20.438,25.22.117.034h0l.168.285h0l.268.235h0l4.195-.487,4.01,1.762,1.846-.319.638,1.225,1.393-.755-.7,2.4-.671.789-.5-.235-.4,1.158,1.46,1.745,2.483-.956.252,2.332-1.41.453-.285-.654-3.708.117-1.057-1.527-2.064-.1-.638.738-2.248-.252-.806-1.98-1.8-.638-2.047-1.913L428.4,55.35h0l.134-.873Z" transform="translate(3448.772 1736.91)" fill="#E0D3AD" stroke="#BAA147" stroke-width="1"></path></a><a title="Valencia"><path id="ES-VC" title="Valencia" d="M456.44,149.264l2.148.3h0l.52.3h0l.805-.336,1.04.5h0l.822-.722h0l.755-.336-.017-2.987.906-.772.05.537h0l.285.722h0l.722,1.762,1.359.839.017,1.712,4.43.218,3.222,2.584.285,1.158-.554.789-3.725,1.527h0l-3.775.956-1.208-.386h0l-.084-.168h0l-4.463-.571-2.047-4.564.47-.453-2-1.443.034-1.175ZM470.568,159.5l.805.554.352-.621,1.091.252.923-.654,3.809-.117,2.534,1.426.537-.47.738,1.493-.4,1.275.57,1.644-.5,1.057,1.93,1.46,3.406-2.014-1.9-2.534.1-3.155,2.45-.99,1.225-3.1,3.289.117,2.3-1.779.738.218-.6-1.946.839-1.376,1.393-.654,1.611-6.813,2.316,1.41,3.037-.923,1.98-1.191-.789-1.812.5-.688,1.057.05,1.242-2.081,2.651-1.527-.252-1.326-2.735-3.289.587-.906,2.819-1.124-.2-1.359-1.091-.94.319-5.722-1.393.419-2.081-.638-.436-3.138,2.232-.839,1.023,1.158,3.239-1.829.269-2.97,1.56-2.584,2.366-.084.05,1.04,1.628,1.443,2.064.973,1.829-.151h0l.906-.05h0l.906.3h0l.017.185h0l.537,1.678h0l.537.2h0l3.087-2.131,1.779.47,1.04-.873h0l1.258.587,1.292-.5.52,1.9h.252l1.057-.134h0l.453.453h0l.134.151h0l.336.134h0l-.923,2.735.688.94,2.668,1.242,2.853.352,1.879,1.46-.218,1.829,3.457,1.477h0l-1.695,3.843-.084-.453-2.584,3.96-.419,2.551-3.776,4.866-1.779,1.359-.956,2.651-3.306,2.114-2.215,5.537-4.447,2.92-2.5,6.947-2.7,3.272-.822.067-4.463,7.383-1.376,4.715-2.349,2.634-2.618,5.739.084,3.591-.638-.487.57.973-.755.352,1.41,6.158,4.078,8.524-1.04.722.1,1.829,3.524,8.709,6.326,6.947,6.645,1.477-.722.235.319.5.235-.487v.654l3.49,1.762-.671.654.369,1.141.873.805.638-.252.453,1.628-2.349.923-1.493,2.316-.94-.352-1.426.805-1.124,1.577.42.839-1.56-.6-.889.94-1.477-.285-1.208.722-1.577,2.316.587.94-2.131,2.232-2.467-.654-.99,1.141-5.2,1.644-4.044,2.651-1.309,2.248.017,3-1.946-.571-2,2.081.436-.973-1.023.487-.7,3.02.487,4.514-.671.805-3.2.067-.99,1.007-1.258,4.128-.2,5.705-.923,1.493-1.493.5-.99,3.2-1.409.789-.52,2.886h0l-.957.134-2.181-1.107-3.306-3.507-5.353-10.185-.285-2.6,2.249-3.692,1.007-4.782-1.007-2.551-4.866-.554.319-4.916-.671-.352,3.608-3.406-.537-1.544,1.091-2.936-1.158-4.782h0l2.92-.05,2.165-2.3-2.1-4.447,1.51-.7.235-2.282-.587-1.863.537-2.181-1.107-.99-.5-2-1.879-.336-1.477.906-5.051.319-3.742-5.6-1.695-1.259.352-3.54,3.356-6.074.873-5.621-2.081-1.141-.537.554-1.527-.587h0l-.268-.134h0l-.956-.117h-.268l-1.577-.587h0l-.3-.084h0l-.386.487-1.41-1.292-.789.067v-.738l-1.124-.084.487-.52-1.158-.268-.084,1.091-.1-.554h0l-.1-.268h0l-1.124.822h0l.2-.1h0l.084-.805-.839-.3.654-.017-.319-1.024h0l-.118.1h0l-.638.352.436-.537h-1.024l.3-1.091h-1.007l.336-.4h0L453.2,191.5l-.386-1.359.688-.252.453-1.175-.4-1.057.587-.268-.168-2.752-.805-.151,2.634-1.594,2.668-5.269,1.561-1.326,1.309.487h0l1.225.587h0l1.611-.487.738-1.141-.587-2.349,2.685-4.061.772-5.621h0l.151-.722h0l-.654-1.175.3-.973,2.987-1.342Z" transform="translate(3484.129 1803.142)" fill="#E0D3AD" stroke="#BAA147" stroke-width="1"></path></a><a title="Islas Canarias"><path id="ES-CN" title="Islas Canarias" d="M6.655,536.859l.61.25.53,1.12-.85,1.06-.34,1.18-.81.38-.57,2.44-.86-.31-1.11-1.31-2.58-.33-.41-.35.16-1.25.54-.45,1.46.52,1.2-.28,1.3-1.17-.12-.67,1.85-.83Zm68.19-10.15.5.46-.17,1.01v-.83l-.28.94v-.53l-.32.23.5,1.22-.24,1.23,1.26,1.53.16.56-.45.74.69,1-.71.26-.25,1.09.24.99-.8.37-.36,1.24-3.34,1.19-.56.92-.78.08-1.62-.69-.4.23-3.06-2.6-1.26-2.32.27-3.19.99-.23,1.79-1.49.64-2.48-.33-.48.71-.13.43.36.8-.42.99.85,2.03-.33,1.64.88.79-.35-.12-.87.62-.44Zm-50.46-1.06.38-.08.45.53,1.31.02.33.62,1.75.84.42.74.06,1.11-1.86,1.76-.82.34-1.94-.06-1.34-1.03-.04-.54-.75-.68.1-1.66.65-1.39,1.3-.52Zm13.91-4.94.97-.02,1.43-.79,1.92.24,1.43-.78,1.09-.02,2.2-2.07.52-1.21.76-.61,1.27-.28.36-.69,2.72.4,1.77-.7.7.22.34.67-.15.85-2.99,1.39-.46.97-2.95,2.32v2.24l-1.75,3.15-.04,1.71-3.27,3.78-1.33-.13-1.31.78-1.56-.02-.27-1.3-.72-.29.02-.91-1.15-1.06-1.58-2.66-.11-1.77-1.52-2.08-.76-.29.2-.6,2.3-.98.66.5,1.26.04Zm78.07-11.75,1.55,1.36.38,3.71-.57,2.73-.66.72.41,2.69-1.16,2.14-.04,1.12-.55,1.08-.74.7-1.15.03-.69.64-5.63,1.31-3.08,3.71-3.91-1.02-.9.36.45-1.38.27.31,1.1-.02,2-.53,3.93-2.88.57-3.52,1.12-1.29.42-2.17,1.44-1.43,1.6-3.26-.12-.75.82-1.85-.22-1.22,3.36-1.29Zm2.27-.29-.1.77-.43.06-.19-.47Zm-111.58-2.79,1.43.75,1.33-.4.86.16.74,2.1.72.92-1.26,2.04.56,1.61-.26,1.65-2.22,3.63-.74-.63-.33-2.07-1.24-1.73-1.49-4.01-.72-.97.05-.83,1.04-1.33,1.53-.89ZM128,494.419l1.14.57.1.75-.23.93-.98.82.45,1.25-.5.99.03,1.16-.57.79-1.39.73-.29.53-1.34.11-1.25.92-2.52.38-1.4,2.11-.38-.62-1.95.11-.24-.97,1.42-1.31-.11-1.88.5-1.37,1.65-1.38,1.27-.04,1.54-1.34.49.23.86-.62,1.47.53.62-.72.77-2.4.7-.61.14.35Zm-1.14-1.97.95.83-.87,1.21-1.07.17.99-2.21Zm.08-3.89.47.41-.52.56-.61.01.17-.84Z" transform="translate(3507.332 1725.528)" fill="#E0D3AD" stroke="#BAA147" stroke-width="1"></path></a><a title="Melilla"><g id="ES-ME" transform="translate(4036.597 2262.127)" fill="#E0D3AD"><path d="M 4 7.5 C 2.070090055465698 7.5 0.5 5.929910182952881 0.5 4 C 0.5 2.070090055465698 2.070090055465698 0.5 4 0.5 C 5.929910182952881 0.5 7.5 2.070090055465698 7.5 4 C 7.5 5.929910182952881 5.929910182952881 7.5 4 7.5 Z" stroke="none"></path><path d="M 4 1 C 2.345789909362793 1 1 2.345789909362793 1 4 C 1 5.654210090637207 2.345789909362793 7 4 7 C 5.654210090637207 7 7 5.654210090637207 7 4 C 7 2.345789909362793 5.654210090637207 1 4 1 M 4 0 C 6.209139823913574 0 8 1.790860176086426 8 4 C 8 6.209139823913574 6.209139823913574 8 4 8 C 1.790860176086426 8 0 6.209139823913574 0 4 C 0 1.790860176086426 1.790860176086426 0 4 0 Z" stroke="none" fill="#BAA147"></path></g></a><a title="Ceuta"><g id="ES-CE" transform="translate(3803.597 2205.127)" fill="#E0D3AD"><path d="M 3.5 6.5 C 1.845790028572083 6.5 0.5 5.154210090637207 0.5 3.5 C 0.5 1.845790028572083 1.845790028572083 0.5 3.5 0.5 C 5.154210090637207 0.5 6.5 1.845790028572083 6.5 3.5 C 6.5 5.154210090637207 5.154210090637207 6.5 3.5 6.5 Z" stroke="none"></path><path d="M 3.5 1 C 2.121500015258789 1 1 2.121500015258789 1 3.5 C 1 4.878499984741211 2.121500015258789 6 3.5 6 C 4.878499984741211 6 6 4.878499984741211 6 3.5 C 6 2.121500015258789 4.878499984741211 1 3.5 1 M 3.5 0 C 5.433000087738037 0 7 1.566999912261963 7 3.5 C 7 5.433000087738037 5.433000087738037 7 3.5 7 C 1.566999912261963 7 0 5.433000087738037 0 3.5 C 0 1.566999912261963 1.566999912261963 0 3.5 0 Z" stroke="none" fill="#BAA147"></path></g></a></g><g id="lineas" transform="translate(-542 3)"><path id="limite-islas" d="M574,18.144l-32,76ZM631.444-1.872,629-1.856l2.444-.016L634.681-3l-3.237,1.128L781-2.856l-149.556.984L574,18.144Z" transform="translate(840.5 5140.356)" stroke="#E0D3AD" stroke-width="3"></path></g></g></svg>